<svg xmlns="http://www.w3.org/2000/svg" xml:space="preserve" width="2631" height="380" overflow="hidden"><defs><linearGradient id="c" x1="212.988" x2="1276.26" y1="409.824" y2="409.824" gradientUnits="userSpaceOnUse" spreadMethod="reflect"><stop offset="0" stop-color="#78206E"/><stop offset=".43" stop-color="#D86ECC"/><stop offset=".82" stop-color="#83CBEB"/><stop offset="1" stop-color="#83CBEB"/></linearGradient><clipPath id="a"><path d="M224 1587h2631v380H224z"/></clipPath><filter id="b" width="120%" height="120%" x="-10%" y="-10%" filterUnits="userSpaceOnUse" primitiveUnits="userSpaceOnUse"><feComponentTransfer color-interpolation-filters="sRGB"><feFuncR tableValues="0 0" type="discrete"/><feFuncG tableValues="0 0" type="discrete"/><feFuncB tableValues="0 0" type="discrete"/><feFuncA slope=".4" type="linear"/></feComponentTransfer><feGaussianBlur stdDeviation="6.11111 6.11111"/></filter></defs><g clip-path="url(#a)" transform="translate(-224 -1587)"><g filter="url(#b)" transform="translate(223 1586)"><path fill="#FFF" fill-rule="evenodd" d="M20 76.75c0-31.48 25.52-57 57-57h1149c31.48 0 57 25.52 57 57V304.75c0 31.481-25.52 57.001-57 57.001H77c-31.48 0-57-25.52-57-57.001Z"/></g><path fill="#FFF" fill-rule="evenodd" d="M243 1649c0-31.48 25.52-57 57.001-57H1449c31.48 0 57 25.52 57 57v228c0 31.48-25.52 57-57 57H300.001c-31.481 0-57.001-25.52-57.001-57Z"/><g fill-rule="evenodd"><path fill="#FFF" d="M274 1634.643c0-10.846 8.8-19.638 19.658-19.638H1454.34c10.86 0 19.66 8.792 19.66 19.638v267.723c0 10.846-8.8 19.639-19.66 19.639H293.658c-10.857 0-19.658-8.793-19.658-19.639Z"/><path fill="url(#c)" d="m1040.61 382.152-16.32 52.704h32.64Zm-611.22 0-16.315 52.704h32.631Zm431.7-15.673v100.043h.75c9.019 0 16.621-.163 22.81-.483 6.192-.323 12.075-2.236 17.659-5.744 6.581-4.15 11.592-9.873 15.027-17.173 3.435-7.3 5.15-16.208 5.15-26.727 0-10.52-1.806-19.518-5.417-26.998-3.616-7.477-9.179-13.329-16.694-17.548-5.439-3.008-11.145-4.654-17.121-4.939-5.974-.285-13.111-.431-21.414-.431Zm-303.875 0v47.874h2.793c3.792 0 7.369-.035 10.731-.108 3.365-.069 6.299-.319 8.803-.75 2.147-.358 4.418-1.056 6.818-2.094 2.396-1.035 4.236-2.199 5.525-3.487 2.719-2.646 4.563-5.404 5.529-8.265.965-2.862 1.448-6.727 1.448-11.593 0-4.507-1.073-8.39-3.22-11.648-2.146-3.254-4.723-5.49-7.727-6.706-3.792-1.646-7.425-2.594-10.894-2.844-3.473-.254-8.179-.379-14.117-.379Zm167.624-3.004c-4.938 0-9.411.876-13.419 2.629-4.004 1.754-7.869 4.883-11.592 9.394-3.289 4.15-5.956 9.658-7.995 16.528-2.042 6.873-3.059 15.065-3.059 24.581 0 9.803.965 17.944 2.896 24.421 1.935 6.477 4.581 11.898 7.946 16.263 3.435 4.435 7.335 7.602 11.7 9.498 4.362 1.896 8.873 2.845 13.523 2.845 4.723 0 9.304-1.021 13.739-3.06 4.438-2.039 8.265-5.206 11.485-9.498 3.434-4.65 6.084-10.072 7.946-16.264 1.858-6.188 2.788-14.294 2.788-24.31 0-9.519-.982-17.624-2.952-24.313-1.965-6.692-4.598-12.183-7.886-16.479-3.439-4.362-7.318-7.494-11.648-9.39-4.331-1.896-8.821-2.845-13.472-2.845Zm403.451-26.835h49.27l50.99 91.562V336.64h36.71v159.828h-38.65L1165 385.049v111.419h-36.71Zm-109.04 0h43.79l54 159.828h-41.33l-9.98-32.631h-50.24l-9.98 32.631h-40.252Zm-198.306 0h49.592c11.235 0 21.754.716 31.558 2.147 9.804 1.431 19 4.902 27.585 10.412 10.519 6.726 18.822 15.798 24.903 27.209 6.081 11.416 9.124 24.852 9.124 40.306 0 14.885-3.254 28.214-9.766 39.987-6.515 11.769-14.742 20.806-24.689 27.102-8.303 5.365-17.336 8.821-27.105 10.359-9.766 1.539-20.16 2.306-31.179 2.306h-50.023Zm-303.875 0h62.043c9.231 0 17.194.841 23.883 2.523 6.692 1.681 12.755 4.347 18.194 7.997 6.011 4.008 10.661 9.356 13.954 16.048 3.292 6.689 4.938 14.652 4.938 23.883 0 7.442-1.181 14.527-3.542 21.254-2.362 6.723-5.762 12.342-10.197 16.85a69.038 69.038 0 0 1-8.963 7.731c-3.258 2.361-6.852 4.361-10.787 6.008-3.938 1.646-8.213 2.934-12.828 3.865-4.616.931-9.787 1.396-15.51 1.396h-21.039v52.273h-40.146Zm-109.04 0h43.792l53.993 159.828H464.49l-9.984-32.631h-50.235l-9.981 32.631h-40.254Zm-109.491-3.113c6.369 0 12.093.358 17.174 1.074 5.081.716 9.947 1.717 14.598 3.005 3.65 1.074 7.621 2.541 11.915 4.401 4.293 1.861 7.765 3.471 10.412 4.83v38.108h-4.081c-1.93-1.719-4.363-3.775-7.297-6.175-2.934-2.396-6.262-4.741-9.983-7.029-3.721-2.292-7.818-4.241-12.29-5.852-4.473-1.608-9.142-2.414-14.008-2.414-5.796 0-11.11.914-15.94 2.737-4.83 1.827-9.428 4.991-13.793 9.498-4.007 4.081-7.281 9.592-9.822 16.531-2.54 6.942-3.81 15.135-3.81 24.581 0 9.946 1.324 18.302 3.972 25.063 2.647 6.766 6.118 12.221 10.411 16.372 4.151 4.007 8.784 6.904 13.901 8.692 5.116 1.792 10.215 2.685 15.296 2.685 5.295 0 10.34-.876 15.134-2.629 4.795-1.754 8.838-3.702 12.13-5.852 3.578-2.216 6.727-4.47 9.446-6.762a313.661 313.661 0 0 0 7.084-6.119h3.65v37.569a1313.16 1313.16 0 0 1-10.198 4.671 93.206 93.206 0 0 1-11.914 4.453c-5.01 1.503-9.697 2.649-14.062 3.438-4.365.785-10.376 1.18-18.033 1.18-23.972 0-43.007-7.247-57.104-21.736-14.098-14.492-21.146-34.868-21.146-61.133 0-25.331 7.066-45.529 21.199-60.591 14.133-15.064 33.186-22.596 57.159-22.596Zm426.194-.214c24.046 0 42.973 7.424 56.784 22.272 13.808 14.85 20.716 35.191 20.716 61.022 0 25.834-6.908 46.157-20.716 60.969-13.811 14.815-32.738 22.219-56.784 22.219-24.116 0-43.043-7.494-56.781-22.486-13.742-14.993-20.612-35.226-20.612-60.702 0-25.689 6.87-45.995 20.612-60.914 13.738-14.92 32.665-22.38 56.781-22.38Z" transform="matrix(1.00098 0 0 1 128.693 1348.29)"/></g><text font-family="Tahoma,Tahoma_MSFontService,sans-serif" font-size="165" font-weight="400" transform="translate(1554.05 1832)">RESEARCH </text><text font-family="Tahoma,Tahoma_MSFontService,sans-serif" font-size="165" font-weight="700" transform="translate(2397.39 1832)">LTD</text></g></svg>