<svg width="1301" height="381" xmlns="http://www.w3.org/2000/svg" xmlns:xlink="http://www.w3.org/1999/xlink" xml:space="preserve" overflow="hidden"><defs><filter id="fx0" x="-10%" y="-10%" width="120%" height="120%" filterUnits="userSpaceOnUse" primitiveUnits="userSpaceOnUse"><feComponentTransfer color-interpolation-filters="sRGB"><feFuncR type="discrete" tableValues="0 0"/><feFuncG type="discrete" tableValues="0 0"/><feFuncB type="discrete" tableValues="0 0"/><feFuncA type="linear" slope="0.4" intercept="0"/></feComponentTransfer><feGaussianBlur stdDeviation="6.11111 6.11111"/></filter><clipPath id="clip1"><rect x="137" y="1327" width="1301" height="381"/></clipPath><linearGradient x1="213.196" y1="410.225" x2="1277.51" y2="410.225" gradientUnits="userSpaceOnUse" spreadMethod="reflect" id="fill2"><stop offset="0" stop-color="#78206E"/><stop offset="0.43" stop-color="#D86ECC"/><stop offset="0.82" stop-color="#83CBEB"/><stop offset="1" stop-color="#83CBEB"/></linearGradient></defs><g clip-path="url(#clip1)" transform="translate(-137 -1327)"><g filter="url(#fx0)" transform="translate(136 1326)"><g><path d="M20.0001 76.9181C20.0001 45.345 45.595 19.75 77.1679 19.75L1225.83 19.75C1257.41 19.75 1283 45.345 1283 76.9181L1283 305.582C1283 337.155 1257.41 362.75 1225.83 362.75L77.1679 362.75C45.595 362.75 20.0001 337.155 20.0001 305.582Z" fill="#FFFFFF" fill-rule="evenodd"/></g></g><path d="M156 1389.17C156 1357.59 181.595 1332 213.168 1332L1361.83 1332C1393.41 1332 1419 1357.59 1419 1389.17L1419 1617.83C1419 1649.41 1393.41 1675 1361.83 1675L213.168 1675C181.595 1675 156 1649.41 156 1617.83Z" fill="#FFFFFF" fill-rule="evenodd"/><g><g><g><g><path d="M145.307 286.633C145.307 275.776 154.108 266.976 164.965 266.976L1325.65 266.976C1336.51 266.976 1345.31 275.776 1345.31 286.633L1345.31 554.618C1345.31 565.474 1336.51 574.276 1325.65 574.276L164.965 574.276C154.108 574.276 145.307 565.474 145.307 554.618Z" fill="#FFFFFF" fill-rule="evenodd" transform="matrix(1 0 0 1.00228 42.693 1087.42)"/><path d="M1041.63 382.526 1025.29 435.282 1057.96 435.282ZM429.81 382.526 413.479 435.282 446.141 435.282ZM861.932 366.838 861.932 466.978 862.682 466.978C871.71 466.978 879.32 466.815 885.515 466.495 891.713 466.172 897.601 464.256 903.191 460.745 909.779 456.591 914.795 450.862 918.233 443.555 921.671 436.248 923.388 427.331 923.388 416.802 923.388 406.272 921.581 397.265 917.965 389.778 914.346 382.293 908.778 376.436 901.255 372.212 895.811 369.202 890.1 367.554 884.117 367.269 878.138 366.984 870.994 366.838 862.682 366.838ZM557.76 366.838 557.76 414.758 560.555 414.758C564.351 414.758 567.932 414.723 571.297 414.65 574.665 414.581 577.603 414.33 580.109 413.899 582.257 413.541 584.531 412.842 586.933 411.803 589.331 410.767 591.174 409.603 592.464 408.313 595.185 405.664 597.031 402.904 597.998 400.039 598.964 397.175 599.447 393.306 599.447 388.436 599.447 383.924 598.373 380.037 596.225 376.776 594.076 373.519 591.497 371.28 588.49 370.064 584.694 368.416 581.058 367.467 577.585 367.217 574.109 366.963 569.399 366.838 563.454 366.838ZM725.548 363.831C720.605 363.831 716.128 364.707 712.116 366.462 708.108 368.218 704.239 371.35 700.512 375.866 697.22 380.02 694.55 385.533 692.51 392.409 690.466 399.289 689.447 407.489 689.447 417.014 689.447 426.827 690.414 434.976 692.346 441.459 694.283 447.942 696.932 453.368 700.3 457.738 703.738 462.177 707.642 465.348 712.012 467.246 716.378 469.144 720.893 470.093 725.548 470.093 730.276 470.093 734.861 469.071 739.3 467.03 743.743 464.99 747.574 461.819 750.796 457.523 754.234 452.868 756.886 447.441 758.75 441.243 760.609 435.049 761.541 426.935 761.541 416.91 761.541 407.381 760.557 399.268 758.586 392.572 756.619 385.874 753.984 380.378 750.692 376.078 747.25 371.711 743.367 368.576 739.032 366.678 734.698 364.78 730.203 363.831 725.548 363.831ZM1129.39 336.97 1178.71 336.97 1229.75 428.621 1229.75 336.97 1266.49 336.97 1266.49 496.954 1227.81 496.954 1166.14 385.425 1166.14 496.954 1129.39 496.954ZM1020.25 336.97 1064.08 336.97 1118.13 496.954 1076.76 496.954 1066.77 464.291 1016.49 464.291 1006.49 496.954 966.202 496.954ZM821.746 336.97 871.387 336.97C882.633 336.97 893.162 337.686 902.976 339.118 912.789 340.551 921.994 344.025 930.588 349.54 941.117 356.273 949.429 365.353 955.516 376.776 961.603 388.203 964.648 401.652 964.648 417.122 964.648 432.021 961.391 445.363 954.873 457.147 948.351 468.928 940.116 477.973 930.16 484.276 921.848 489.647 912.807 493.105 903.028 494.645 893.253 496.185 882.848 496.954 871.818 496.954L821.746 496.954ZM517.575 336.97 579.678 336.97C588.918 336.97 596.889 337.811 603.584 339.494 610.283 341.178 616.352 343.846 621.796 347.499 627.813 351.511 632.468 356.864 635.764 363.563 639.059 370.258 640.707 378.229 640.707 387.469 640.707 394.919 639.525 402.01 637.161 408.744 634.797 415.474 631.394 421.098 626.955 425.611 624.233 428.406 621.243 430.985 617.983 433.349 614.722 435.713 611.124 437.715 607.185 439.363 603.243 441.01 598.964 442.3 594.344 443.232 589.724 444.163 584.548 444.629 578.819 444.629L557.76 444.629 557.76 496.954 517.575 496.954ZM408.428 336.97 452.263 336.97 506.308 496.954 464.944 496.954 454.95 464.291 404.666 464.291 394.676 496.954 354.382 496.954ZM298.83 333.853C305.205 333.853 310.935 334.212 316.021 334.928 321.106 335.644 325.977 336.647 330.633 337.936 334.286 339.011 338.262 340.479 342.559 342.342 346.857 344.204 350.333 345.816 352.981 347.176L352.981 385.321 348.897 385.321C346.965 383.6 344.529 381.542 341.592 379.14 338.655 376.742 335.325 374.395 331.6 372.104 327.875 369.81 323.774 367.86 319.298 366.247 314.821 364.637 310.147 363.831 305.276 363.831 299.474 363.831 294.156 364.745 289.321 366.57 284.486 368.399 279.883 371.565 275.514 376.078 271.503 380.162 268.226 385.679 265.683 392.625 263.14 399.574 261.869 407.774 261.869 417.229 261.869 427.185 263.194 435.549 265.844 442.318 268.494 449.089 271.968 454.55 276.266 458.705 280.421 462.716 285.059 465.615 290.18 467.406 295.302 469.199 300.405 470.093 305.491 470.093 310.792 470.093 315.842 469.217 320.641 467.461 325.44 465.706 329.487 463.755 332.782 461.604 336.363 459.386 339.515 457.13 342.237 454.835 344.959 452.545 347.323 450.504 349.328 448.71L352.981 448.71 352.981 486.316C350.044 487.679 346.642 489.236 342.774 490.992 338.906 492.747 334.931 494.232 330.848 495.448 325.834 496.954 321.142 498.101 316.773 498.89 312.403 499.676 306.387 500.072 298.722 500.072 274.726 500.072 255.673 492.817 241.562 478.314 227.45 463.808 220.395 443.413 220.395 417.122 220.395 391.766 227.468 371.548 241.615 356.472 255.762 341.393 274.833 333.853 298.83 333.853ZM725.44 333.639C749.51 333.639 768.455 341.07 782.28 355.933 796.102 370.797 803.016 391.158 803.016 417.014 803.016 442.874 796.102 463.217 782.28 478.043 768.455 492.873 749.51 500.284 725.44 500.284 701.301 500.284 682.356 492.782 668.604 477.775 654.848 462.768 647.972 442.516 647.972 417.014 647.972 391.3 654.848 370.975 668.604 356.041 682.356 341.106 701.301 333.639 725.44 333.639Z" fill="url(#fill2)" fill-rule="evenodd" transform="matrix(1 0 0 1.00228 42.693 1087.42)"/></g></g></g></g></g></svg>