<svg width="397" height="397" xmlns="http://www.w3.org/2000/svg" xmlns:xlink="http://www.w3.org/1999/xlink" xml:space="preserve" overflow="hidden"><g transform="translate(-1347 -1037)"><path d="M1492.5 1090C1492.5 1062.66 1515.56 1040.5 1544 1040.5 1572.44 1040.5 1595.5 1062.66 1595.5 1090 1595.5 1117.34 1572.44 1139.5 1544 1139.5 1515.56 1139.5 1492.5 1117.34 1492.5 1090Z" stroke="#FFFFFF" stroke-width="6.875" stroke-miterlimit="8" fill="none" fill-rule="evenodd"/><path d="M1350.5 1254.5C1350.5 1234.07 1367.96 1217.5 1389.5 1217.5 1411.04 1217.5 1428.5 1234.07 1428.5 1254.5 1428.5 1274.93 1411.04 1291.5 1389.5 1291.5 1367.96 1291.5 1350.5 1274.93 1350.5 1254.5Z" stroke="#FFFFFF" stroke-width="6.875" stroke-miterlimit="8" stroke-dasharray="6.875 6.875" fill="none" fill-rule="evenodd"/><path d="M1611.5 1350.5C1611.5 1330.07 1628.74 1313.5 1650 1313.5 1671.26 1313.5 1688.5 1330.07 1688.5 1350.5 1688.5 1370.93 1671.26 1387.5 1650 1387.5 1628.74 1387.5 1611.5 1370.93 1611.5 1350.5Z" stroke="#FFFFFF" stroke-width="6.875" stroke-miterlimit="8" stroke-dasharray="6.875 6.875" fill="none" fill-rule="evenodd"/><path d="M1663.5 1254.5C1663.5 1234.07 1680.74 1217.5 1702 1217.5 1723.26 1217.5 1740.5 1234.07 1740.5 1254.5 1740.5 1274.93 1723.26 1291.5 1702 1291.5 1680.74 1291.5 1663.5 1274.93 1663.5 1254.5Z" stroke="#FFFFFF" stroke-width="6.875" stroke-miterlimit="8" stroke-dasharray="6.875 6.875" fill="none" fill-rule="evenodd"/><path d="M1504.5 1393C1504.5 1372.29 1521.96 1355.5 1543.5 1355.5 1565.04 1355.5 1582.5 1372.29 1582.5 1393 1582.5 1413.71 1565.04 1430.5 1543.5 1430.5 1521.96 1430.5 1504.5 1413.71 1504.5 1393Z" stroke="#FFFFFF" stroke-width="6.875" stroke-miterlimit="8" stroke-dasharray="6.875 6.875" fill="none" fill-rule="evenodd"/><path d="M1399.5 1350.5C1399.5 1330.07 1416.74 1313.5 1438 1313.5 1459.26 1313.5 1476.5 1330.07 1476.5 1350.5 1476.5 1370.93 1459.26 1387.5 1438 1387.5 1416.74 1387.5 1399.5 1370.93 1399.5 1350.5Z" stroke="#FFFFFF" stroke-width="6.875" stroke-miterlimit="8" stroke-dasharray="6.875 6.875" fill="none" fill-rule="evenodd"/><path d="M1625.5 1153.5C1625.5 1133.07 1642.74 1116.5 1664 1116.5 1685.26 1116.5 1702.5 1133.07 1702.5 1153.5 1702.5 1173.93 1685.26 1190.5 1664 1190.5 1642.74 1190.5 1625.5 1173.93 1625.5 1153.5Z" stroke="#FFFFFF" stroke-width="6.875" stroke-miterlimit="8" stroke-dasharray="6.875 6.875" fill="none" fill-rule="evenodd"/><path d="M1384.5 1153.5C1384.5 1133.07 1401.74 1116.5 1423 1116.5 1444.26 1116.5 1461.5 1133.07 1461.5 1153.5 1461.5 1173.93 1444.26 1190.5 1423 1190.5 1401.74 1190.5 1384.5 1173.93 1384.5 1153.5Z" stroke="#FFFFFF" stroke-width="6.875" stroke-miterlimit="8" stroke-dasharray="6.875 6.875" fill="none" fill-rule="evenodd"/></g></svg>