<svg width="330" height="330" xmlns="http://www.w3.org/2000/svg" xmlns:xlink="http://www.w3.org/1999/xlink" xml:space="preserve" overflow="hidden"><g transform="translate(-2738 -336)"><path d="M158.125 103.469 158.125 117.219C160.531 117.219 162.594 116.875 165 116.875 167.406 116.875 169.469 116.875 171.875 117.219L171.875 103.469C185.281 104.156 198 106.906 209.688 111.375L204.531 123.75C209 125.469 213.125 127.188 217.25 129.25L222.406 116.531C228.938 119.625 234.781 123.406 240.625 127.531L255.406 112.75C230.312 93.8438 199.031 82.5 165 82.5 81.4688 82.5 13.75 150.219 13.75 233.75L13.75 247.5 34.375 247.5 34.375 233.75C34.375 219.656 36.7812 205.906 40.9062 193.188L53.625 198.344C55 193.875 56.7188 189.75 58.4375 185.625L45.7188 180.469C50.875 168.781 58.0938 157.781 66.3438 148.5L75.9688 158.125C79.0625 154.688 82.1562 151.25 85.5938 148.156L75.9688 138.531C85.25 129.938 95.9062 122.375 107.594 116.531L112.75 129.25C116.875 127.188 121 125.469 125.469 123.75L120.312 111.031C132 106.562 144.719 104.156 158.125 103.469Z" fill="#FFFFFF" transform="matrix(-1 0 0 1 3068 336)"/><path d="M289.094 147.125 274.312 161.906C278.094 167.75 281.531 173.938 284.281 180.125L271.562 185.625C273.281 189.75 275 194.219 276.375 198.344L289.094 193.188C293.219 205.906 295.625 219.656 295.625 233.75L295.625 247.5 316.25 247.5 316.25 233.75C316.25 201.438 306.281 171.875 289.094 147.125Z" fill="#FFFFFF" transform="matrix(-1 0 0 1 3068 336)"/><path d="M155.375 227.562C154.688 227.906 154.344 228.594 153.656 229.281 148.844 235.125 149.531 243.719 155.375 248.875 161.219 253.688 169.812 253 174.969 247.156L281.875 120.312 155.375 227.562Z" fill="#FFFFFF" transform="matrix(-1 0 0 1 3068 336)"/><path d="M0 0 114.297 0.000360892" stroke="#FFFFFF" stroke-width="13.75" stroke-miterlimit="8" fill="none" fill-rule="evenodd" transform="matrix(-1 0 0 1 3046.3 576)"/><path d="M0 0 114.297 0.000360892" stroke="#FFFFFF" stroke-width="13.75" stroke-miterlimit="8" fill="none" fill-rule="evenodd" transform="matrix(-1 0 0 1 2873.3 576)"/><path d="M0 0 82.1492 123.57" stroke="#FFFFFF" stroke-width="6.875" stroke-miterlimit="8" stroke-dasharray="6.875 6.875" fill="none" fill-rule="evenodd" transform="matrix(-1 0 0 1 2985.65 453.5)"/></g></svg>