<svg width="304" height="304" xmlns="http://www.w3.org/2000/svg" xmlns:xlink="http://www.w3.org/1999/xlink" xml:space="preserve" overflow="hidden"><g transform="translate(-651 -1765)"><path d="M688.5 1906.52 769.081 1811.5 881.809 1860.16C881.896 1918.76 882.412 1946.89 882.5 2005.5L767.533 1996.49 688.5 1906.52Z" stroke="#FFFFFF" stroke-width="1.14583" stroke-miterlimit="8" stroke-dasharray="4.58333 3.4375" fill="#FFFFFF" fill-rule="evenodd" fill-opacity="0.501961"/><path d="M653.5 1917C653.5 1834.43 720.433 1767.5 803 1767.5 885.567 1767.5 952.5 1834.43 952.5 1917 952.5 1999.57 885.567 2066.5 803 2066.5 720.433 2066.5 653.5 1999.57 653.5 1917Z" stroke="#FFFFFF" stroke-width="4.58333" stroke-miterlimit="8" fill="none" fill-rule="evenodd"/><g><g><g><path d="M776.333 1798.88C776.333 1802.37 773.498 1805.21 770 1805.21 766.502 1805.21 763.667 1802.37 763.667 1798.88 763.667 1795.38 766.502 1792.54 770 1792.54 773.498 1792.54 776.333 1795.38 776.333 1798.88Z" fill="#FFFFFF"/><path d="M782.667 1819.46 782.667 1813.12C782.667 1812.18 782.192 1811.22 781.4 1810.59 779.658 1809.17 777.442 1808.22 775.225 1807.58 773.642 1807.11 771.9 1806.79 770 1806.79 768.258 1806.79 766.517 1807.11 764.775 1807.58 762.558 1808.22 760.342 1809.32 758.6 1810.59 757.808 1811.22 757.333 1812.18 757.333 1813.12L757.333 1819.46 782.667 1819.46Z" fill="#FFFFFF"/></g></g></g><g><g><g><path d="M25.3332 11.8749C25.3332 15.3727 22.4977 18.2082 18.9999 18.2082 15.5021 18.2082 12.6666 15.3727 12.6666 11.8749 12.6666 8.37715 15.5021 5.54164 18.9999 5.54164 22.4977 5.54164 25.3332 8.37715 25.3332 11.8749Z" fill="#FFFFFF" transform="matrix(1 0 0 1.00001 863 1833)"/><path d="M31.6665 32.4582 31.6665 26.1249C31.6665 25.1749 31.1915 24.2249 30.3998 23.5915 28.6582 22.1666 26.4415 21.2166 24.2249 20.5832 22.6416 20.1082 20.8999 19.7916 18.9999 19.7916 17.2582 19.7916 15.5166 20.1082 13.7749 20.5832 11.5583 21.2166 9.34162 22.3249 7.59996 23.5915 6.8083 24.2249 6.3333 25.1749 6.3333 26.1249L6.3333 32.4582 31.6665 32.4582Z" fill="#FFFFFF" transform="matrix(1 0 0 1.00001 863 1833)"/></g></g></g><g><g><g><path d="M25.3332 11.8749C25.3332 15.3727 22.4977 18.2082 18.9999 18.2082 15.5021 18.2082 12.6666 15.3727 12.6666 11.8749 12.6666 8.37715 15.5021 5.54164 18.9999 5.54164 22.4977 5.54164 25.3332 8.37715 25.3332 11.8749Z" fill="#FFFFFF" transform="matrix(1 0 0 1.00001 674 1879)"/><path d="M31.6665 32.4582 31.6665 26.1249C31.6665 25.1749 31.1915 24.2249 30.3998 23.5915 28.6582 22.1666 26.4415 21.2166 24.2249 20.5832 22.6416 20.1082 20.8999 19.7916 18.9999 19.7916 17.2582 19.7916 15.5166 20.1082 13.7749 20.5832 11.5583 21.2166 9.34162 22.3249 7.59996 23.5915 6.8083 24.2249 6.3333 25.1749 6.3333 26.1249L6.3333 32.4582 31.6665 32.4582Z" fill="#FFFFFF" transform="matrix(1 0 0 1.00001 674 1879)"/></g></g></g><g><g><g><path d="M25.3332 11.8749C25.3332 15.3727 22.4977 18.2082 18.9999 18.2082 15.5021 18.2082 12.6666 15.3727 12.6666 11.8749 12.6666 8.37715 15.5021 5.54164 18.9999 5.54164 22.4977 5.54164 25.3332 8.37715 25.3332 11.8749Z" fill="#FFFFFF" transform="matrix(1.00001 0 0 1 748 1970)"/><path d="M31.6665 32.4582 31.6665 26.1249C31.6665 25.1749 31.1915 24.2249 30.3998 23.5915 28.6582 22.1666 26.4415 21.2166 24.2249 20.5832 22.6416 20.1082 20.8999 19.7916 18.9999 19.7916 17.2582 19.7916 15.5166 20.1082 13.7749 20.5832 11.5583 21.2166 9.34162 22.3249 7.59996 23.5915 6.8083 24.2249 6.3333 25.1749 6.3333 26.1249L6.3333 32.4582 31.6665 32.4582Z" fill="#FFFFFF" transform="matrix(1.00001 0 0 1 748 1970)"/></g></g></g><g><g><g><path d="M25.3332 11.8749C25.3332 15.3727 22.4977 18.2082 18.9999 18.2082 15.5021 18.2082 12.6666 15.3727 12.6666 11.8749 12.6666 8.37715 15.5021 5.54164 18.9999 5.54164 22.4977 5.54164 25.3332 8.37715 25.3332 11.8749Z" fill="#FFFFFF" transform="matrix(1 0 0 1.00001 862 1976)"/><path d="M31.6665 32.4582 31.6665 26.1249C31.6665 25.1749 31.1915 24.2249 30.3998 23.5915 28.6582 22.1666 26.4415 21.2166 24.2249 20.5832 22.6416 20.1082 20.8999 19.7916 18.9999 19.7916 17.2582 19.7916 15.5166 20.1082 13.7749 20.5832 11.5583 21.2166 9.34162 22.3249 7.59996 23.5915 6.8083 24.2249 6.3333 25.1749 6.3333 26.1249L6.3333 32.4582 31.6665 32.4582Z" fill="#FFFFFF" transform="matrix(1 0 0 1.00001 862 1976)"/></g></g></g></g></svg>