<svg width="415" height="377" xmlns="http://www.w3.org/2000/svg" xmlns:xlink="http://www.w3.org/1999/xlink" xml:space="preserve" overflow="hidden"><defs><clipPath id="clip0"><path d="M778.054 1099.02 943.255 1189.14 853.132 1354.34 687.93 1264.22Z" fill-rule="evenodd" clip-rule="evenodd"/></clipPath><clipPath id="clip1"><path d="M778.054 1099.02 943.255 1189.14 853.132 1354.34 687.93 1264.22Z" fill-rule="evenodd" clip-rule="evenodd"/></clipPath><clipPath id="clip2"><path d="M778.054 1099.02 943.255 1189.14 853.132 1354.34 687.93 1264.22Z" fill-rule="evenodd" clip-rule="evenodd"/></clipPath><clipPath id="clip3"><rect x="913" y="1126" width="108" height="215"/></clipPath><clipPath id="clip4"><rect x="913" y="1126" width="108" height="215"/></clipPath></defs><g transform="translate(-606 -1030)"><g clip-path="url(#clip0)"><g clip-path="url(#clip1)"><g clip-path="url(#clip2)"><path d="M740.577 1224.61C740.515 1221.45 737.714 1218.81 734.554 1218.87 731.394 1218.93 728.75 1221.73 728.812 1224.89L729.374 1248.42C729.436 1251.58 732.237 1254.23 735.397 1254.16 738.557 1254.1 741.201 1251.3 741.139 1248.14L740.577 1224.61Z" fill="#FFFFFF"/><path d="M810.396 1276.32 782.721 1270.16 780.422 1260.86 816.451 1268.91 810.396 1276.32ZM875.196 1277.06 874.556 1250.81 873.713 1215.52 873.073 1189.26C872.902 1186.71 870.508 1184.96 868.114 1185.66L748.337 1218.57 749.18 1253.87 771.802 1259.06 775.415 1273.32C776.04 1275.44 777.558 1277.16 779.732 1277.68L809.754 1284.46C810.192 1284.47 810.802 1284.58 811.24 1284.6 812.82 1284.57 814.604 1283.75 815.527 1282.47L824.883 1271.05 870.393 1281.36C872.927 1281.63 875.368 1279.61 875.196 1277.06Z" fill="#FFFFFF"/></g></g></g><g clip-path="url(#clip3)"><g clip-path="url(#clip4)"><g><path d="M164.609 49.2708 155.875 58.0052C183.646 85.776 183.646 131.016 155.875 158.786L164.609 167.521C197.307 135.047 197.307 81.9687 164.609 49.2708Z" fill="#FFFFFF" transform="matrix(1.00725 0 0 1 804.441 1126)"/><path d="M146.917 66.7395 138.182 75.4739C156.323 93.6145 156.323 122.953 138.182 141.318L146.917 150.052C169.984 126.984 169.984 89.8072 146.917 66.7395Z" fill="#FFFFFF" transform="matrix(1.00725 0 0 1 804.441 1126)"/><path d="M129.672 84.6562 120.937 93.3906C129.448 101.901 129.448 115.562 120.937 124.073L129.672 132.807C143.109 119.37 143.109 97.8697 129.672 84.6562Z" fill="#FFFFFF" transform="matrix(1.00725 0 0 1 804.441 1126)"/><path d="M7.83854 77.4895 7.83854 137.51 51.2864 137.51 107.5 183.646 107.5 31.3541 51.2864 77.4895Z" fill="#FFFFFF" transform="matrix(1.00725 0 0 1 804.441 1126)"/></g></g></g><g><g><g><path d="M892.677 1352.02 696.323 1352.02 696.323 1108.54 739.521 1108.54 739.521 1132.1 849.479 1132.1 849.479 1108.54 892.677 1108.54 892.677 1352.02ZM794.5 1077.12C801.176 1077.12 806.281 1082.23 806.281 1088.91 806.281 1095.58 801.176 1100.69 794.5 1100.69 787.824 1100.69 782.719 1095.58 782.719 1088.91 782.719 1085.76 783.897 1082.62 786.253 1080.66 788.217 1078.3 791.358 1077.12 794.5 1077.12ZM900.531 1084.98 833.771 1084.98 833.771 1077.12C833.771 1068.49 826.702 1061.42 818.063 1061.42L770.938 1061.42C762.298 1061.42 755.229 1068.49 755.229 1077.12L755.229 1084.98 688.469 1084.98C679.829 1084.98 672.76 1092.05 672.76 1100.69L672.76 1359.88C672.76 1368.51 679.829 1375.58 688.469 1375.58L900.531 1375.58C909.171 1375.58 916.24 1368.51 916.24 1359.88L916.24 1100.69C916.24 1092.05 909.171 1084.98 900.531 1084.98Z" fill="#FFFFFF"/></g></g></g></g></svg>