<svg width="96" height="96" xmlns="http://www.w3.org/2000/svg" xmlns:xlink="http://www.w3.org/1999/xlink" xml:space="preserve" overflow="hidden"><g transform="translate(-1000 -503)"><path d="M1077.03 559.53C1077.03 563.827 1073.55 567.31 1069.25 567.31 1064.95 567.31 1061.47 563.827 1061.47 559.53 1061.47 555.233 1064.95 551.75 1069.25 551.75 1073.55 551.75 1077.03 555.233 1077.03 559.53Z" fill="#FFFFFF"/><path d="M1035.54 559.53C1035.54 563.827 1032.06 567.31 1027.76 567.31 1023.46 567.31 1019.98 563.827 1019.98 559.53 1019.98 555.233 1023.46 551.75 1027.76 551.75 1032.06 551.75 1035.54 555.233 1035.54 559.53Z" fill="#FFFFFF"/><path d="M1083.26 574.05C1081.02 572.304 1078.42 571.066 1075.65 570.42 1073.57 569.812 1071.42 569.476 1069.25 569.42 1067.08 569.415 1064.92 569.753 1062.86 570.42 1060.79 570.97 1058.82 571.819 1057 572.94L1056.64 573.35C1059.55 574.135 1062.27 575.495 1064.64 577.35 1066.5 578.72 1067.59 580.906 1067.56 583.22L1067.56 585 1084.81 585 1084.81 577.17C1084.84 575.937 1084.26 574.768 1083.26 574.05Z" fill="#FFFFFF"/><path d="M1029.48 583.22C1029.48 580.967 1030.52 578.84 1032.29 577.45L1032.4 577.35 1032.53 577.26C1034.93 575.552 1037.59 574.235 1040.4 573.36 1040.2 573.15 1040.01 572.93 1039.83 572.71 1038.06 571.679 1036.14 570.908 1034.15 570.42 1032.07 569.813 1029.92 569.477 1027.76 569.42 1025.59 569.414 1023.43 569.752 1021.36 570.42 1018.63 571.173 1016.05 572.402 1013.75 574.05 1012.78 574.797 1012.21 575.946 1012.19 577.17L1012.19 585 1029.48 585Z" fill="#FFFFFF"/><path d="M1032.94 591 1032.94 583.22C1032.94 581.996 1033.52 580.845 1034.5 580.11 1036.8 578.454 1039.38 577.225 1042.11 576.48 1044.17 575.808 1046.33 575.471 1048.5 575.48 1050.67 575.531 1052.82 575.867 1054.9 576.48 1057.67 577.117 1060.27 578.357 1062.51 580.11 1063.52 580.821 1064.1 581.988 1064.07 583.22L1064.07 591Z" fill="#FFFFFF"/><path d="M1056.28 565.58C1056.28 569.877 1052.8 573.36 1048.5 573.36 1044.2 573.36 1040.72 569.877 1040.72 565.58 1040.72 561.283 1044.2 557.8 1048.5 557.8 1052.8 557.8 1056.28 561.283 1056.28 565.58Z" fill="#FFFFFF"/><path d="M1081 511 1016.25 511C1014.04 511 1012.25 512.791 1012.25 515L1012.25 537C1012.25 539.209 1014.04 541 1016.25 541L1031 541 1031 547 1037.3 541 1044.1 541 1048 547 1051.6 541 1058.7 541 1065 547 1065 541 1081 541C1083.21 541 1085 539.209 1085 537L1085 515C1085 512.791 1083.21 511 1081 511ZM1022.25 520 1069 520 1069 522 1022.25 522ZM1059 532 1022.25 532 1022.25 530 1059 530ZM1075 527 1022.25 527 1022.25 525 1075 525Z" fill="#FFFFFF"/></g></svg>