<svg width="96" height="96" xmlns="http://www.w3.org/2000/svg" xmlns:xlink="http://www.w3.org/1999/xlink" xml:space="preserve" overflow="hidden"><g transform="translate(-796 -507)"><path d="M889.1 546.7 877.8 527.9 876.8 526.2 875.1 527.3 867.5 532C866.6 532.5 865.9 533.4 865.6 534.4 865.4 535.1 865.4 535.9 865.7 536.6 863.6 537.3 861.5 537.7 859.3 537.7 856.3 537.6 853.3 537.1 850.4 536.2 849 535.8 847.5 535.5 846 535.2L845.8 535.2 845.8 535.2C845.7 535.2 845.6 535.2 845.6 535.2L845.4 535.2 845.2 535.2C845 535.2 844.9 535.2 844.7 535.2L844.7 535.2C843 535.2 841.3 535.9 840.2 537.2L839.4 538.1C838.1 537.6 836.7 537.3 835.3 537.3 835 537.3 834.8 537.3 834.5 537.3 833.9 537.3 833.4 537.4 832.8 537.4 831.5 537.5 830.2 537.6 828.9 537.6 826.7 537.7 824.5 537.2 822.5 536.3 822.6 535.7 822.6 535.1 822.5 534.4 822.2 533.4 821.5 532.5 820.6 532L813.1 527.3 811.4 526.2 810.4 527.9 798.9 546.7 797.9 548.4 799.6 549.4 807.3 554.1C808.7 555 810.4 554.9 811.7 553.9L818.2 561.5 818.3 561.7 818.5 561.8 818.5 561.8 817.1 563.4C815.3 565.5 815.5 568.6 817.5 570.4L817.5 570.4 817.5 570.4C818.4 571.2 819.5 571.6 820.7 571.6 820.9 571.6 821.1 571.6 821.3 571.6 822 571.5 822.6 571.3 823.2 570.9 823.3 572.1 823.9 573.3 824.8 574.1L824.8 574.1 824.8 574.1C825.7 574.9 826.8 575.3 828 575.3 828.1 575.3 828.3 575.3 828.4 575.3 828.9 575.3 829.4 575.2 829.9 575 830 576.1 830.5 577.2 831.4 577.9L831.4 577.9 831.4 577.9C832.2 578.6 833.2 579 834.2 579 834.4 579 834.5 579 834.7 579 835.4 579 836 578.7 836.6 578.4 836.8 579.1 837.2 579.8 837.8 580.3 838.6 581 839.6 581.4 840.7 581.3L840.9 581.3 841.1 581.3C841.7 581.2 842.3 580.9 842.8 580.6L842.9 580.7 844.3 581.8 844.4 581.9 844.5 582C845.4 582.6 846.5 582.9 847.5 582.9 847.7 582.9 847.9 582.9 848.1 582.9 850.6 582.7 852.6 580.9 853.3 578.5 855.5 578.1 857.3 576.4 857.9 574.2 860.2 573.7 862 572 862.5 569.8 862.6 569.8 862.8 569.8 862.9 569.8 866.1 569.5 868.5 566.7 868.3 563.5 868.3 563.3 868.3 563 868.3 562.8L869.1 561.8 876 553.8C877.3 554.9 879.1 554.9 880.6 554L888.3 549.3 890 548.3 889.1 546.7ZM808.3 552.4 800.6 547.7 812 528.9 819.6 533.6C820.4 534 820.8 535 820.5 535.8L819.9 536.8 811.2 551.2 810.6 552.1C810.3 552.4 809.8 552.6 809.3 552.6 809 552.7 808.6 552.6 808.3 552.4ZM821.1 569.6C821 569.6 820.9 569.6 820.8 569.6 819.2 569.6 817.9 568.2 817.9 566.6 817.9 565.9 818.2 565.2 818.6 564.7L823.9 558.7C824.5 558.1 825.3 557.7 826.2 557.7 826.9 557.7 827.6 558 828.1 558.4 829.3 559.5 829.5 561.4 828.4 562.6L823.1 568.6C822.6 569.2 821.9 569.5 821.1 569.6ZM828.5 573.4C828.4 573.4 828.3 573.4 828.2 573.4 826.6 573.4 825.3 572 825.3 570.4 825.3 569.7 825.6 569 826 568.5L830.6 563.2C831.2 562.6 832 562.2 832.9 562.2 833.6 562.2 834.3 562.5 834.8 562.9 836 564 836.2 565.9 835.1 567.1L830.5 572.4C830 573 829.3 573.4 828.5 573.4L828.5 573.4ZM834.8 577.1C834.7 577.1 834.6 577.1 834.5 577.1 833.9 577.1 833.4 576.9 832.9 576.5 831.9 575.6 831.8 574 832.7 573L837.3 567.7C837.8 567.2 838.5 566.9 839.2 566.9 839.8 566.9 840.4 567.1 840.8 567.5 841.8 568.4 841.9 570 841 571L836.4 576.3C836 576.8 835.4 577.1 834.8 577.1L834.8 577.1ZM840.9 579.5C840.4 579.5 839.8 579.4 839.4 579 838.6 578.3 838.5 577 839.2 576.2L843.1 571.7C843.5 571.3 844 571 844.6 571 845.1 571 845.5 571.2 845.9 571.5 846.7 572.2 846.8 573.5 846.1 574.3L842.2 578.8C841.9 579.2 841.4 579.4 840.9 579.5L840.9 579.5ZM862.9 567.8C862.8 567.8 862.6 567.8 862.5 567.8 861.9 567.8 861.3 567.6 860.8 567.4 860.8 567.6 860.9 567.8 860.9 568 861.1 570.2 859.5 572.1 857.3 572.3 857.3 572.3 857.3 572.3 857.3 572.3 857 572.3 856.6 572.3 856.3 572.2L856.3 572.3C856.5 574.5 854.9 576.4 852.7 576.6 852.7 576.6 852.7 576.6 852.7 576.6 852.4 576.6 852 576.6 851.7 576.5L851.7 576.6C851.9 578.8 850.3 580.7 848.1 580.9 848.1 580.9 848.1 580.9 848.1 580.9 848 580.9 847.9 580.9 847.8 580.9 847.1 580.9 846.4 580.7 845.7 580.3L844.4 579.3 847.6 575.6C849 573.9 848.8 571.4 847.2 570 846.5 569.4 845.6 569 844.6 569 844.3 569 843.9 569 843.6 569.1 843.5 567.9 843 566.8 842.1 566 841.3 565.3 840.2 564.9 839.1 564.9L839.1 564.9C838.6 564.9 838.2 565 837.7 565.1 837.7 563.7 837.1 562.4 836 561.4 835.1 560.6 834 560.1 832.8 560.2L832.8 560.2C832.2 560.2 831.6 560.3 831 560.5 830.9 559.1 830.3 557.8 829.3 556.9 828.4 556.1 827.3 555.6 826.1 555.7L826.1 555.7C824.7 555.7 823.3 556.3 822.3 557.4L819.7 560.4 819.6 560.3 812.8 552.4 821.5 538C823.7 539.1 826.2 539.6 828.7 539.5 830.7 539.5 832.7 539.3 834.5 539.1 834.7 539.1 834.9 539.1 835.1 539.1 836 539.1 836.9 539.2 837.7 539.5L832.2 546C831.1 547.2 830.6 548.8 830.7 550.4 830.8 552 831.6 553.4 832.8 554.5L832.8 554.5 832.8 554.5C833.9 555.4 835.3 555.9 836.7 555.9 836.9 555.9 837 555.9 837.2 555.9 838.8 555.8 840.3 555 841.3 553.8L848.1 546 848.1 546 849.2 547 865.3 560.8C866 561.4 866.4 562.4 866.4 563.3 866.4 563.4 866.4 563.7 866.4 563.7 866.6 565.8 865 567.6 862.9 567.8 862.9 567.8 862.9 567.8 862.9 567.8ZM867.8 560.5C867.5 560 867.1 559.6 866.7 559.2L848 543.1 839.8 552.5C839.1 553.3 838.2 553.8 837.1 553.9 837 553.9 836.9 553.9 836.8 553.9 835.8 553.9 834.9 553.5 834.1 552.9 832.4 551.5 832.2 549.1 833.6 547.4 833.6 547.4 833.7 547.3 833.7 547.3L841.6 538.3C842.4 537.4 843.5 537 844.6 537 844.7 537 844.8 537 845 537 845.2 537 845.3 537.1 845.5 537.1 850.1 538 854.3 539.6 859.2 539.6 861.7 539.6 864.2 539.2 866.5 538.3L872.3 547.7 875 552.2 867.8 560.5ZM879.7 552.4C879.4 552.6 879 552.7 878.7 552.7 878.2 552.7 877.7 552.5 877.3 552.1L876.7 551.1 874 546.7 867.7 536.3C867.1 535.4 867.4 534.3 868.2 533.7 868.3 533.7 868.3 533.6 868.4 533.6L876.1 528.9 887.4 547.7 879.7 552.4Z" fill="#FFFFFF"/></g></svg>