<svg width="330" height="330" xmlns="http://www.w3.org/2000/svg" xmlns:xlink="http://www.w3.org/1999/xlink" xml:space="preserve" overflow="hidden"><g transform="translate(-2041 -336)"><path d="M2199.12 439.469 2199.12 453.219C2201.53 453.219 2203.59 452.875 2206 452.875 2208.41 452.875 2210.47 452.875 2212.88 453.219L2212.88 439.469C2226.28 440.156 2239 442.906 2250.69 447.375L2245.53 459.75C2250 461.469 2254.12 463.187 2258.25 465.25L2263.41 452.531C2269.94 455.625 2275.78 459.406 2281.62 463.531L2296.41 448.75C2271.31 429.844 2240.03 418.5 2206 418.5 2122.47 418.5 2054.75 486.219 2054.75 569.75L2054.75 583.5 2075.38 583.5 2075.38 569.75C2075.38 555.656 2077.78 541.906 2081.91 529.187L2094.62 534.344C2096 529.875 2097.72 525.75 2099.44 521.625L2086.72 516.469C2091.88 504.781 2099.09 493.781 2107.34 484.5L2116.97 494.125C2120.06 490.687 2123.16 487.25 2126.59 484.156L2116.97 474.531C2126.25 465.937 2136.91 458.375 2148.59 452.531L2153.75 465.25C2157.88 463.187 2162 461.469 2166.47 459.75L2161.31 447.031C2173 442.562 2185.72 440.156 2199.12 439.469Z" fill="#FFFFFF"/><path d="M2330.09 483.125 2315.31 497.906C2319.09 503.75 2322.53 509.937 2325.28 516.125L2312.56 521.625C2314.28 525.75 2316 530.219 2317.38 534.344L2330.09 529.187C2334.22 541.906 2336.62 555.656 2336.62 569.75L2336.62 583.5 2357.25 583.5 2357.25 569.75C2357.25 537.437 2347.28 507.875 2330.09 483.125Z" fill="#FFFFFF"/><path d="M2196.38 563.562C2195.69 563.906 2195.34 564.594 2194.66 565.281 2189.84 571.125 2190.53 579.719 2196.38 584.875 2202.22 589.687 2210.81 589 2215.97 583.156L2322.88 456.312 2196.38 563.562Z" fill="#FFFFFF"/><path d="M2062 576 2176.3 576" stroke="#FFFFFF" stroke-width="13.75" stroke-miterlimit="8" fill="none" fill-rule="evenodd"/><path d="M2235 576 2349.3 576" stroke="#FFFFFF" stroke-width="13.75" stroke-miterlimit="8" fill="none" fill-rule="evenodd"/><path d="M2124.5 453.5 2206.65 577.07" stroke="#FFFFFF" stroke-width="6.875" stroke-miterlimit="8" stroke-dasharray="6.875 6.875" fill="none" fill-rule="evenodd"/></g></svg>