<svg width="390" height="392" xmlns="http://www.w3.org/2000/svg" xmlns:xlink="http://www.w3.org/1999/xlink" xml:space="preserve" overflow="hidden"><defs><clipPath id="clip0"><rect x="3452" y="1215" width="392" height="199"/></clipPath><clipPath id="clip1"><rect x="3452" y="1215" width="392" height="199"/></clipPath></defs><g transform="translate(-3453 -1022)"><g clip-path="url(#clip0)"><g clip-path="url(#clip1)"><path d="M320.938 263.985C320.735 253.25 315.711 243.177 307.259 236.555 292.525 224.498 275.015 216.986 256.604 210.405L236.62 202.203C233.567 200.958 231.574 197.985 231.583 194.687L231.583 182.715C246.922 171.243 255.961 153.216 255.978 134.063L255.978 131.389 264.875 119.958C268.415 115.393 270.034 109.627 269.389 103.886 267.043 78.0914 251.409 55.3898 228.146 44.001 225.048 42.5242 221.395 42.835 218.591 44.8135L218.591 44.8135 218.087 45.1628 216.271 42.6806C214.373 40.0293 211.515 38.2246 208.305 37.6513 168.587 30.7715 130.715 57.0944 123.321 96.72L123.171 97.5325C121.476 106.67 117.939 115.367 112.775 123.094 111.532 124.962 112.039 127.484 113.906 128.726 114.573 129.17 115.355 129.407 116.155 129.407L134.099 129.407 134.099 134.063C134.112 153.197 143.128 171.209 158.438 182.687L158.438 194.687C158.444 197.985 156.45 200.957 153.396 202.203L133.299 210.438C114.94 217.023 97.5 224.518 82.8507 236.499 74.3478 243.144 69.2978 253.272 69.1072 264.063L69.1072 333.28 70.915 334.498C89.9154 347.165 143.341 353.49 196.337 353.49 249.555 353.49 302.344 347.108 319.321 334.368L320.938 333.125ZM131.158 99.0072 131.304 98.1947C137.887 62.9391 171.586 39.5231 206.924 45.6503 208.049 45.8778 209.045 46.5274 209.706 47.4663L213.862 53.1538C215.164 54.9372 217.652 55.354 219.464 54.0922L223.222 51.476C223.617 51.1822 224.137 51.1172 224.591 51.3053 245.297 61.4368 259.217 81.6368 261.312 104.593 261.784 108.3 260.761 112.042 258.469 114.993L255.572 118.71C254.648 113.107 252.18 107.872 248.446 103.594L234.654 87.7704C233.642 86.6109 232.061 86.1234 230.571 86.511 223.048 88.461 218.323 94.38 213.318 100.644 205.599 110.305 196.853 121.253 174.724 121.253L123.325 121.253C127.072 114.288 129.714 106.784 131.158 99.0072ZM142.224 134.063 142.224 129.387 174.724 129.387C200.769 129.387 211.693 115.712 219.672 105.723 222.476 101.521 226.119 97.9453 230.372 95.221L242.328 108.94C245.887 113.024 247.849 118.257 247.853 123.675L247.853 130.004 247.853 134.067C247.822 163.221 224.195 186.848 195.041 186.879L195.041 186.879C165.883 186.85 142.253 163.22 142.224 134.063ZM156.488 209.719C162.593 207.227 166.578 201.282 166.563 194.687L166.563 187.911C184.352 197.361 205.673 197.361 223.462 187.911L223.462 194.667C223.445 201.262 227.431 207.208 233.537 209.698L240.894 212.717 222.247 345.028C215.089 345.309 207.809 345.463 200.493 345.504L214.821 330.594 209.771 246.094 218.733 215.313 171.348 215.313 180.217 245.814 175.273 330.598 189.569 345.479C182.256 345.398 174.944 345.207 167.765 344.886L149.134 212.737ZM203.182 239.688 186.899 239.688 182.171 223.438 207.911 223.438ZM188.236 247.813 201.736 247.813 206.497 327.531 195.045 339.45 183.589 327.527ZM141.416 216.21 159.502 344.468C123.512 342.371 91.6785 337.155 77.2363 328.843L77.2363 264.16C77.4024 255.804 81.3317 247.971 87.9288 242.84 101.563 231.676 118.129 224.534 135.631 218.254ZM254.41 218.242C271.919 224.526 288.486 231.672 302.197 242.889 308.736 247.995 312.633 255.769 312.813 264.063L312.813 328.973C299.443 337.48 267.244 342.692 230.49 344.642L248.625 216.202Z" fill="#FFFFFF" transform="matrix(1 0 0 1.02471 3453 1014.37)"/><path d="M255.958 276.25 292.516 276.25 292.516 284.375 255.958 284.375Z" fill="#FFFFFF" transform="matrix(1 0 0 1.02471 3453 1014.37)"/></g></g><g><g><g><path d="M88.613 35.7811C86.635 18.8792 71.3298 6.78104 54.4278 8.75906 38.942 10.5714 27.2503 23.666 27.1971 39.2575L41.6971 39.2575C41.6967 30.2517 48.9971 22.9507 58.0028 22.9503 67.0086 22.95 74.3096 30.2503 74.31 39.2562 74.3102 44.8713 71.4215 50.0915 66.6637 53.0735 56.8449 59.0811 50.8267 69.7352 50.7499 81.2458L65.2499 81.2458C65.3423 74.7244 68.7956 68.713 74.3825 65.3478 84.4408 59.07 89.9812 47.5585 88.613 35.7811Z" fill="#FFFFFF" transform="matrix(1 0 0 1.01724 3590 1099)"/><path d="M64.4995 92.4059 64.4995 92.4059C61.0442 88.9435 55.4363 88.9376 51.9737 92.3929 51.9694 92.3972 51.965 92.4016 51.9607 92.4059 51.1504 93.2193 50.5052 94.182 50.0612 95.2407 49.5989 96.3344 49.3634 97.5104 49.3688 98.6977 49.3622 99.8803 49.5986 101.052 50.0636 102.139 50.9672 104.265 52.665 105.953 54.7954 106.846 55.8888 107.308 57.0642 107.544 58.2512 107.542 59.4337 107.547 60.605 107.311 61.6926 106.847 63.8079 105.943 65.4927 104.258 66.3954 102.143 66.8601 101.055 67.097 99.8839 67.0914 98.7014 67.0959 97.5141 66.8599 96.3381 66.3978 95.2443 65.9541 94.1846 65.3095 93.2207 64.4995 92.4059Z" fill="#FFFFFF" transform="matrix(1 0 0 1.01724 3590 1099)"/></g></g></g><path d="M3706.5 1147.38 3738 1147.38 3738 1129.5 3766.5 1158 3738 1186.5 3738 1168.62 3706.5 1168.62Z" stroke="#FFFFFF" stroke-width="3.4375" stroke-miterlimit="8" fill="none" fill-rule="evenodd"/><path d="M0 17.8769 31.4998 17.8769 31.4998 0 59.9998 28.5001 31.4998 57.0001 31.4998 39.1231 0 39.1231Z" stroke="#FFFFFF" stroke-width="3.4375" stroke-miterlimit="8" fill="none" fill-rule="evenodd" transform="matrix(-1 0 0 1 3588.5 1129.5)"/><path d="M0 17.5633 33.0002 17.5633 33.0002 0 61.0002 28 33.0002 56 33.0002 38.4368 0 38.4368Z" stroke="#FFFFFF" stroke-width="3.4375" stroke-miterlimit="8" fill="none" fill-rule="evenodd" transform="matrix(-6.12323e-17 -1 -1 6.12323e-17 3676.5 1085.5)"/><path d="M0 17.8869 31.3699 17.8869 31.3699 0 59.8858 28.5159 31.3699 57.0318 31.3699 39.1449 0 39.1449Z" stroke="#FFFFFF" stroke-width="3.4375" stroke-miterlimit="8" fill="none" fill-rule="evenodd" transform="matrix(-0.707107 -0.707107 -0.707107 0.707107 3620.58 1085.99)"/><path d="M3685.26 1098.64 3707.45 1076.46 3694.8 1063.81 3735.12 1063.81 3735.12 1104.14 3722.48 1091.49 3700.29 1113.67Z" stroke="#FFFFFF" stroke-width="3.4375" stroke-miterlimit="8" fill="none" fill-rule="evenodd"/></g></svg>