<svg width="397" height="397" xmlns="http://www.w3.org/2000/svg" xmlns:xlink="http://www.w3.org/1999/xlink" xml:space="preserve" overflow="hidden"><g transform="translate(-1327 -355)"><path d="M1471.5 408C1471.5 380.662 1494.56 358.5 1523 358.5 1551.44 358.5 1574.5 380.662 1574.5 408 1574.5 435.338 1551.44 457.5 1523 457.5 1494.56 457.5 1471.5 435.338 1471.5 408Z" stroke="#FFFFFF" stroke-width="6.875" stroke-miterlimit="8" stroke-dasharray="6.875 6.875" fill="none" fill-rule="evenodd"/><path d="M1330.5 572.5C1330.5 552.065 1347.74 535.5 1369 535.5 1390.26 535.5 1407.5 552.065 1407.5 572.5 1407.5 592.935 1390.26 609.5 1369 609.5 1347.74 609.5 1330.5 592.935 1330.5 572.5Z" stroke="#FFFFFF" stroke-width="6.875" stroke-miterlimit="8" fill="none" fill-rule="evenodd"/><path d="M1590.5 668.5C1590.5 648.065 1607.74 631.5 1629 631.5 1650.26 631.5 1667.5 648.065 1667.5 668.5 1667.5 688.934 1650.26 705.5 1629 705.5 1607.74 705.5 1590.5 688.934 1590.5 668.5Z" stroke="#FFFFFF" stroke-width="6.875" stroke-miterlimit="8" fill="none" fill-rule="evenodd"/><path d="M1642.5 572.5C1642.5 552.065 1659.96 535.5 1681.5 535.5 1703.04 535.5 1720.5 552.065 1720.5 572.5 1720.5 592.935 1703.04 609.5 1681.5 609.5 1659.96 609.5 1642.5 592.935 1642.5 572.5Z" stroke="#FFFFFF" stroke-width="6.875" stroke-miterlimit="8" fill="none" fill-rule="evenodd"/><path d="M1484.5 711C1484.5 690.289 1501.74 673.5 1523 673.5 1544.26 673.5 1561.5 690.289 1561.5 711 1561.5 731.711 1544.26 748.5 1523 748.5 1501.74 748.5 1484.5 731.711 1484.5 711Z" stroke="#FFFFFF" stroke-width="6.875" stroke-miterlimit="8" fill="none" fill-rule="evenodd"/><path d="M1379.5 668.5C1379.5 648.065 1396.74 631.5 1418 631.5 1439.26 631.5 1456.5 648.065 1456.5 668.5 1456.5 688.934 1439.26 705.5 1418 705.5 1396.74 705.5 1379.5 688.934 1379.5 668.5Z" stroke="#FFFFFF" stroke-width="6.875" stroke-miterlimit="8" fill="none" fill-rule="evenodd"/><path d="M1604.5 471.5C1604.5 451.065 1621.96 434.5 1643.5 434.5 1665.04 434.5 1682.5 451.065 1682.5 471.5 1682.5 491.934 1665.04 508.5 1643.5 508.5 1621.96 508.5 1604.5 491.934 1604.5 471.5Z" stroke="#FFFFFF" stroke-width="6.875" stroke-miterlimit="8" fill="none" fill-rule="evenodd"/><path d="M1363.5 471.5C1363.5 451.065 1380.96 434.5 1402.5 434.5 1424.04 434.5 1441.5 451.065 1441.5 471.5 1441.5 491.934 1424.04 508.5 1402.5 508.5 1380.96 508.5 1363.5 491.934 1363.5 471.5Z" stroke="#FFFFFF" stroke-width="6.875" stroke-miterlimit="8" fill="none" fill-rule="evenodd"/></g></svg>