<svg width="553" height="331" xmlns="http://www.w3.org/2000/svg" xmlns:xlink="http://www.w3.org/1999/xlink" xml:space="preserve" overflow="hidden"><g transform="translate(-348 -517)"><g><g><g><path d="M512.948 551.375C440.844 551.373 382.391 609.823 382.389 681.928 382.387 754.032 440.837 812.485 512.941 812.487 585.046 812.489 643.499 754.039 643.501 681.935 643.501 681.93 643.501 681.925 643.501 681.921 643.528 609.849 585.123 551.401 513.051 551.375 513.017 551.375 512.983 551.375 512.948 551.375ZM493.891 658.556 472.864 658.556 472.864 721.188 460.75 721.188 460.75 658.549 439.87 658.549 439.87 648.237 493.891 648.237ZM514.275 659.997C514.413 663.65 514.481 667.278 514.481 670.883L514.481 721.188 503.244 721.188 503.244 648.251 520.356 648.251 539.788 697.703C540.272 698.961 540.744 700.194 541.205 701.401 541.668 702.634 542.044 703.897 542.329 705.182L542.617 705.182C543.099 703.732 543.582 702.294 544.068 700.868 544.554 699.443 545.086 698.029 545.663 696.627L565.257 648.261 581.643 648.261 581.643 721.188 569.681 721.188 569.681 673.994C569.681 671.627 569.742 669.257 569.863 666.885 569.969 664.747 570.127 662.609 570.337 660.471L570.176 660.471C569.873 661.399 569.587 662.327 569.316 663.255 568.98 664.415 568.594 665.551 568.158 666.662L546.388 721.188 538.049 721.188 516.224 667.105C515.737 665.984 515.36 664.818 515.1 663.623 514.837 662.416 514.582 661.207 514.337 659.997Z" fill="#FFFFFF"/></g></g></g><g><g><g><path d="M662.774 657.219 684.956 657.219 684.956 727.688 692.1 727.688 692.1 657.219 714.337 657.219 714.337 650.667 662.774 650.667 662.774 657.219Z" fill="#FFFFFF"/><path d="M767.835 708.62C767.223 709.995 766.714 711.253 766.302 712.435L764.927 716.354 764.603 716.354C764.175 714.924 763.7 713.572 763.18 712.298 762.66 711.024 762.132 709.781 761.596 708.568L735.447 650.667 727.014 650.667 727.014 727.688 733.996 727.688 733.996 673.922C733.996 671.344 733.969 668.999 733.917 666.888 733.864 664.778 733.766 662.898 733.621 661.248L733.834 661.248C734.435 663.828 735.24 666.357 736.241 668.81L763.156 727.688 766.219 727.688 793.062 668.446C793.498 667.499 793.883 666.531 794.217 665.544 794.63 664.362 795.088 662.965 795.592 661.354L795.812 661.354C795.384 667.406 795.17 671.793 795.17 674.513L795.17 727.688 802.206 727.688 802.206 650.667 794.207 650.667Z" fill="#FFFFFF"/><path d="M735.928 552.375C663.826 552.375 605.375 610.826 605.375 682.928 605.375 755.03 663.826 813.481 735.928 813.481 808.03 813.481 866.481 755.03 866.481 682.928 866.513 610.858 808.115 552.407 736.045 552.375 736.006 552.375 735.967 552.375 735.928 552.375ZM735.928 806.606C667.622 806.606 612.25 751.233 612.25 682.928 612.25 614.622 667.622 559.25 735.928 559.25 804.233 559.25 859.606 614.622 859.606 682.928 859.528 751.201 804.201 806.528 735.928 806.606Z" fill="#FFFFFF"/></g></g></g></g></svg>