<svg width="323" height="359" xmlns="http://www.w3.org/2000/svg" xmlns:xlink="http://www.w3.org/1999/xlink" xml:space="preserve" overflow="hidden"><g transform="translate(-679 -294)"><g><g><g><path d="M68.9139 44.794 34.4569 65.6979 110.262 111.641 144.719 90.7366Z" fill="#FFFFFF" transform="matrix(1 0 0 1.00185 654.475 442.998)"/><path d="M186.068 65.6979 110.262 19.7553 77.643 39.5106 153.448 85.4532Z" fill="#FFFFFF" transform="matrix(1 0 0 1.00185 654.475 442.998)"/><path d="M34.4569 84.075 34.4569 157.583 105.668 200.769 105.668 119.68 34.4569 76.4944Z" fill="#FFFFFF" transform="matrix(1 0 0 1.00185 654.475 442.998)"/><path d="M140.125 132.315 124.045 141.503 124.045 125.423 140.125 116.235 140.125 132.315ZM114.856 119.68 114.856 200.769 186.068 157.583 186.068 76.4944 114.856 119.68Z" fill="#FFFFFF" transform="matrix(1 0 0 1.00185 654.475 442.998)"/></g></g></g><g><g><g><path d="M119.167 185.396 136.845 174.79 136.845 158.978 119.167 169.583ZM123.75 172.171 132.261 167.063 132.261 172.194 123.75 177.299Z" fill="#FFFFFF" transform="matrix(1.00455 0 0 1 737 294)"/><path d="M141.031 18.0835 113.369 43.2094 110 41.1675 106.588 43.23 78.8998 18.0835 13.2917 57.8554 40.9338 83.0248 39.9415 83.6275 39.9415 88.0756 13.2917 112.342 39.9506 128.498 39.9506 162.186 110 204.646 180.059 162.193 180.059 128.457 206.642 112.342 180.059 88.1375 180.059 83.6275 179.025 82.9996 206.651 57.8554ZM20.9046 58.5956 78.3498 23.7783 102.499 45.7119 54.9175 74.5502 44.9854 80.5085ZM20.9046 111.602 45.0244 89.6477 102.499 124.481 78.3498 146.417ZM107.708 197.904 44.5248 159.61 44.5248 131.276 78.8998 152.112 106.59 126.958 107.708 127.646ZM110 123.429 46.3627 85.0942 57.4933 78.3498 109.984 46.8325 173.66 85.195 173.14 85.5067 173.094 85.4287 154.032 96.981ZM175.475 159.61 112.292 197.904 112.292 127.646 113.369 126.993 141.031 152.112 175.475 131.237ZM199.029 111.604 141.581 146.417 117.459 124.506 156.271 100.982 175.005 89.7348ZM174.937 80.5223 117.459 45.689 141.581 23.7806 199.029 58.5956Z" fill="#FFFFFF" transform="matrix(1.00455 0 0 1 737 294)"/></g></g></g><path d="M854.5 521.5 919.5 561.423 919.5 639.5 854.5 599.577Z" stroke="#FFFFFF" stroke-width="3.4375" stroke-miterlimit="8" stroke-dasharray="13.75 10.3125" fill="none" fill-rule="evenodd"/><path d="M0 65.0001 39.9229 0 118 0 78.077 65.0001Z" stroke="#FFFFFF" stroke-width="3.4375" stroke-miterlimit="8" stroke-dasharray="13.75 10.3125" fill="none" fill-rule="evenodd" transform="matrix(1.83697e-16 1 1 -1.83697e-16 935.5 522.5)"/><path d="M857.5 509 927.5 466.5 997.5 509 927.5 551.5Z" stroke="#FFFFFF" stroke-width="3.4375" stroke-miterlimit="8" stroke-dasharray="13.75 10.3125" fill="none" fill-rule="evenodd"/></g></svg>