<svg width="431" height="361" xmlns="http://www.w3.org/2000/svg" xmlns:xlink="http://www.w3.org/1999/xlink" xml:space="preserve" overflow="hidden"><g transform="translate(-3398 -359)"><rect x="3508" y="429" width="164" height="224" stroke="#FFFFFF" stroke-width="10.3125" stroke-miterlimit="8" fill="none"/><path d="M3401.5 399C3401.5 378.842 3418.29 362.5 3439 362.5 3459.71 362.5 3476.5 378.842 3476.5 399 3476.5 419.158 3459.71 435.5 3439 435.5 3418.29 435.5 3401.5 419.158 3401.5 399Z" stroke="#FFFFFF" stroke-width="6.875" stroke-miterlimit="8" fill="none" fill-rule="evenodd"/><path d="M3699.5 680C3699.5 659.842 3716.29 643.5 3737 643.5 3757.71 643.5 3774.5 659.842 3774.5 680 3774.5 700.158 3757.71 716.5 3737 716.5 3716.29 716.5 3699.5 700.158 3699.5 680Z" stroke="#FFFFFF" stroke-width="6.875" stroke-miterlimit="8" fill="none" fill-rule="evenodd"/><path d="M3721.5 481.5C3721.5 452.781 3744.78 429.5 3773.5 429.5 3802.22 429.5 3825.5 452.781 3825.5 481.5 3825.5 510.219 3802.22 533.5 3773.5 533.5 3744.78 533.5 3721.5 510.219 3721.5 481.5Z" stroke="#FFFFFF" stroke-width="6.875" stroke-miterlimit="8" stroke-dasharray="6.875 6.875" fill="none" fill-rule="evenodd"/><path d="M3427.5 608.5C3427.5 594.141 3439.14 582.5 3453.5 582.5 3467.86 582.5 3479.5 594.141 3479.5 608.5 3479.5 622.859 3467.86 634.5 3453.5 634.5 3439.14 634.5 3427.5 622.859 3427.5 608.5Z" stroke="#FFFFFF" stroke-width="6.875" stroke-miterlimit="8" stroke-dasharray="6.875 6.875" fill="none" fill-rule="evenodd"/><path d="M3465.5 424.5 3508.36 461.152" stroke="#FFFFFF" stroke-width="4.58333" stroke-miterlimit="8" stroke-dasharray="4.58333 4.58333" fill="none" fill-rule="evenodd"/><path d="M3479.5 608.5 3507.97 608.5" stroke="#FFFFFF" stroke-width="4.58333" stroke-miterlimit="8" stroke-dasharray="4.58333 4.58333" fill="none" fill-rule="evenodd"/><path d="M3709.72 654.644 3678.5 619.5" stroke="#FFFFFF" stroke-width="4.58333" stroke-miterlimit="8" stroke-dasharray="4.58333 4.58333" fill="none" fill-rule="evenodd"/><path d="M3638.5 480.5 3721.54 481.153" stroke="#FFFFFF" stroke-width="4.58333" stroke-miterlimit="8" stroke-dasharray="4.58333 4.58333" fill="none" fill-rule="evenodd"/><path d="M3743.5 463.5 3801.38 463.5" stroke="#FFFFFF" stroke-width="4.58333" stroke-miterlimit="8" fill="none" fill-rule="evenodd"/><path d="M3743.5 480.5 3801.38 480.5" stroke="#FFFFFF" stroke-width="4.58333" stroke-miterlimit="8" fill="none" fill-rule="evenodd"/><path d="M3743.5 496.5 3801.38 496.5" stroke="#FFFFFF" stroke-width="4.58333" stroke-miterlimit="8" fill="none" fill-rule="evenodd"/><path d="M3536.5 551.5 3643.89 551.5" stroke="#FFFFFF" stroke-width="4.58333" stroke-miterlimit="8" fill="none" fill-rule="evenodd"/><path d="M3536.5 578.5 3643.89 578.5" stroke="#FFFFFF" stroke-width="4.58333" stroke-miterlimit="8" fill="none" fill-rule="evenodd"/><path d="M3536.5 602.5 3643.89 602.5" stroke="#FFFFFF" stroke-width="4.58333" stroke-miterlimit="8" fill="none" fill-rule="evenodd"/></g></svg>