<svg width="441" height="325" xmlns="http://www.w3.org/2000/svg" xmlns:xlink="http://www.w3.org/1999/xlink" xml:space="preserve" overflow="hidden"><defs><clipPath id="clip0"><rect x="2049" y="1040" width="441" height="325"/></clipPath><clipPath id="clip1"><rect x="2168" y="1103" width="159" height="176"/></clipPath><clipPath id="clip2"><rect x="2168" y="1103" width="159" height="176"/></clipPath></defs><g clip-path="url(#clip0)" transform="translate(-2049 -1040)"><g clip-path="url(#clip1)"><g clip-path="url(#clip2)"><g><path d="M328.447 268.179 328.447 227.178C328.437 218.513 321.413 211.491 312.748 211.483L292.45 211.483 292.45 188.985 241.451 188.985 241.451 175.486 254.702 175.486C268.089 175.474 278.938 164.624 278.951 151.238L278.951 100.743C278.938 87.3556 268.089 76.5065 254.702 76.4939L220.456 76.4939 220.456 62.3561C230.08 59.8709 235.868 50.054 233.383 40.4294 230.898 30.8047 221.081 25.0169 211.456 27.502 201.832 29.9871 196.044 39.804 198.529 49.4286 200.166 55.7686 205.116 60.7191 211.456 62.3561L211.456 76.4939 177.205 76.4939C163.82 76.5088 152.973 87.3574 152.961 100.743L152.961 151.238C152.973 164.623 163.82 175.471 177.205 175.486L191.955 175.486 191.955 188.985 139.462 188.985 139.462 215.951 110.907 215.951C107.212 215.949 104.217 212.956 104.212 209.26L104.212 168.255C117.65 165.762 126.524 152.848 124.031 139.409 123.21 134.983 121.197 130.864 118.21 127.497L111.488 133.482C117.263 139.986 116.671 149.94 110.167 155.715 103.663 161.49 93.7091 160.898 87.9343 154.394 82.6702 148.465 82.6346 139.547 87.851 133.576L81.0746 127.65C72.0883 137.949 73.1521 153.582 83.4508 162.569 86.7914 165.483 90.8532 167.447 95.2125 168.255L95.2125 209.26C95.2224 217.924 102.244 224.943 110.907 224.951L139.462 224.951 139.462 319.587C118.388 320.841 102.321 338.941 103.576 360.015 104.776 380.2 121.491 395.958 141.712 395.969L290.2 395.969C311.311 395.957 328.415 378.834 328.404 357.723 328.393 337.503 312.635 320.788 292.45 319.587L292.45 220.483 312.748 220.483C316.444 220.487 319.44 223.482 319.448 227.178L319.448 268.179C306.009 270.671 297.135 283.586 299.628 297.025 300.448 301.449 302.459 305.565 305.445 308.932L312.167 302.948C306.394 296.442 306.987 286.488 313.492 280.715 319.997 274.941 329.951 275.534 335.725 282.039 340.988 287.97 341.022 296.888 335.804 302.858L342.58 308.779C351.565 298.479 350.498 282.846 340.198 273.861 336.86 270.95 332.802 268.987 328.447 268.179ZM206.957 44.9964C206.957 40.0263 210.986 35.9972 215.956 35.9972 220.926 35.9972 224.955 40.0263 224.955 44.9964 224.955 49.9667 220.926 53.9957 215.956 53.9957 210.986 53.9984 206.955 49.9712 206.952 45.0009 206.952 44.9996 206.952 44.9978 206.952 44.9964ZM148.461 265.794 185.246 265.794 199.906 234.634 213.679 287.406 232.267 249.159 243.966 276.922 253.037 267.648C254.238 266.547 255.784 265.896 257.411 265.807L283.437 265.807 283.437 319.475 148.448 319.475ZM177.205 166.487C168.789 166.474 161.97 159.654 161.96 151.238L161.96 100.743C161.97 92.3264 168.789 85.5058 177.205 85.4932L254.702 85.4932C263.119 85.5058 269.939 92.3255 269.952 100.743L269.952 151.238C269.939 159.655 263.119 166.474 254.702 166.487L177.205 166.487ZM200.954 175.486 232.452 175.486 232.452 188.985 200.954 188.985ZM191.955 197.984 283.451 197.984 283.451 256.795 257.425 256.795C253.566 256.874 249.868 258.352 247.017 260.952L232.843 227.358 216.235 261.555 202.34 208.334 179.536 256.795 148.461 256.795 148.461 197.984ZM319.448 357.722C319.428 373.866 306.345 386.95 290.2 386.969L141.712 386.969C125.559 386.969 112.464 373.875 112.464 357.722 112.464 341.568 125.559 328.474 141.712 328.474L290.2 328.474C306.345 328.494 319.428 341.577 319.448 357.722Z" fill="#FFFFFF" transform="matrix(1 0 0 1.00043 2031.84 1103)"/><path d="M257.798 125.99C257.798 115.304 249.135 106.642 238.45 106.642 227.764 106.642 219.101 115.304 219.101 125.99 219.101 136.676 227.764 145.338 238.45 145.338 249.135 145.338 257.798 136.676 257.798 125.99ZM238.45 139.489C230.994 139.489 224.951 133.445 224.951 125.99 224.951 118.535 230.994 112.491 238.45 112.491 245.905 112.491 251.949 118.535 251.949 125.99 251.949 133.445 245.905 139.489 238.45 139.489Z" fill="#FFFFFF" transform="matrix(1 0 0 1.00043 2031.84 1103)"/><path d="M245.199 125.99C245.199 129.718 242.177 132.739 238.45 132.739 234.722 132.739 231.7 129.718 231.7 125.99 231.7 122.262 234.722 119.241 238.45 119.241 242.177 119.241 245.199 122.262 245.199 125.99Z" fill="#FFFFFF" transform="matrix(1 0 0 1.00043 2031.84 1103)"/><path d="M193.453 106.642C182.767 106.642 174.105 115.304 174.105 125.99 174.105 136.676 182.767 145.338 193.453 145.338 204.139 145.338 212.802 136.676 212.802 125.99 212.802 115.304 204.139 106.642 193.453 106.642ZM193.453 139.489C185.998 139.489 179.954 133.445 179.954 125.99 179.954 118.535 185.998 112.491 193.453 112.491 200.909 112.491 206.952 118.535 206.952 125.99 206.952 133.445 200.909 139.489 193.453 139.489Z" fill="#FFFFFF" transform="matrix(1 0 0 1.00043 2031.84 1103)"/><path d="M200.203 125.99C200.203 129.718 197.181 132.739 193.453 132.739 189.726 132.739 186.704 129.718 186.704 125.99 186.704 122.262 189.726 119.241 193.453 119.241 197.181 119.241 200.203 122.262 200.203 125.99Z" fill="#FFFFFF" transform="matrix(1 0 0 1.00043 2031.84 1103)"/><path d="M224.955 357.722C224.955 362.692 220.926 366.721 215.956 366.721 210.986 366.721 206.957 362.692 206.957 357.722 206.957 352.752 210.986 348.722 215.956 348.722 220.926 348.722 224.955 352.752 224.955 357.722Z" fill="#FFFFFF" transform="matrix(1 0 0 1.00043 2031.84 1103)"/><path d="M159.71 357.722C159.71 362.692 155.681 366.721 150.711 366.721 145.741 366.721 141.712 362.692 141.712 357.722 141.712 352.752 145.741 348.722 150.711 348.722 155.681 348.722 159.71 352.752 159.71 357.722Z" fill="#FFFFFF" transform="matrix(1 0 0 1.00043 2031.84 1103)"/><path d="M290.2 357.722C290.2 362.692 286.171 366.721 281.201 366.721 276.231 366.721 272.201 362.692 272.201 357.722 272.201 352.752 276.231 348.722 281.201 348.722 286.171 348.722 290.2 352.752 290.2 357.722Z" fill="#FFFFFF" transform="matrix(1 0 0 1.00043 2031.84 1103)"/></g></g></g><path d="M357.607 372.507C365.733 372.503 373.839 371.692 381.805 370.086 377.23 366.416 373.418 361.885 370.585 356.75 311.173 364.121 257.034 321.934 249.663 262.522 242.293 203.11 284.48 148.972 343.892 141.6 403.304 134.229 457.442 176.416 464.813 235.828 466.984 253.326 464.854 271.088 458.608 287.575L476.124 281.735C493.841 216.239 455.109 148.782 389.613 131.064 324.118 113.346 256.66 152.078 238.943 217.574 221.225 283.07 259.957 350.527 325.453 368.245 335.935 371.08 346.747 372.514 357.607 372.507Z" fill="#FFFFFF" transform="matrix(1.00049 0 0 1 1887.48 974.737)"/><path d="M570.055 465.909C535.878 439.599 496.728 420.481 454.965 409.706 423.417 400.02 390.609 395.054 357.607 394.969 324.681 395.522 291.977 400.468 260.36 409.676 219.109 421.786 180.201 440.778 145.278 465.85 129.273 478.409 119.768 497.503 119.396 517.844L119.396 633.262 134.296 633.262 134.296 517.844C134.621 502.14 141.967 487.406 154.315 477.696 187.732 453.752 224.948 435.617 264.398 424.055 294.7 415.208 326.045 410.437 357.607 409.87 389.177 409.971 420.559 414.741 450.734 424.025 490.603 434.252 527.989 452.446 560.638 477.509 573.12 487.227 580.567 502.045 580.917 517.859L580.917 633.262 595.818 633.262 595.818 517.844C595.467 497.542 586.008 478.472 570.055 465.909Z" fill="#FFFFFF" transform="matrix(1.00049 0 0 1 1887.48 974.737)"/><path d="M251.174 149.003C308.733 90.2421 403.029 89.2676 461.79 146.827 478.908 163.595 491.726 184.245 499.159 207.025L499.159 297.603 427.303 321.556C419.699 311.879 405.689 310.2 396.014 317.805 386.338 325.41 384.658 339.419 392.263 349.094 399.868 358.771 413.876 360.45 423.552 352.845 428.832 348.696 431.958 342.388 432.064 335.674L523.231 305.284C534.832 304.389 543.806 294.741 543.86 283.105L543.86 223.504C543.86 211.16 533.854 201.154 521.51 201.154L512.816 201.154C484.109 115.396 391.319 69.1462 305.56 97.8524 280.966 106.085 258.679 120.041 240.535 138.573 237.613 141.469 237.592 146.187 240.489 149.109 243.386 152.031 248.103 152.051 251.025 149.155 251.076 149.105 251.125 149.054 251.174 149.003ZM528.96 223.504 528.96 283.105C528.96 287.22 525.625 290.556 521.51 290.556L514.06 290.556 514.06 216.054 521.51 216.054C525.625 216.054 528.96 219.39 528.96 223.504Z" fill="#FFFFFF" transform="matrix(1.00049 0 0 1 1887.48 974.737)"/></g></svg>