<svg width="114" height="113" xmlns="http://www.w3.org/2000/svg" xmlns:xlink="http://www.w3.org/1999/xlink" xml:space="preserve" overflow="hidden"><g transform="translate(-796 -298)"><path d="M51.7917 94.1667 49.4375 94.1667 49.4375 89.4583 16.4792 89.4583 16.4792 94.1667 14.125 94.1667C11.5354 94.1667 9.41667 96.2854 9.41667 98.875 9.41667 101.465 11.5354 103.583 14.125 103.583L51.7917 103.583C54.3813 103.583 56.5 101.465 56.5 98.875 56.5 96.2854 54.3813 94.1667 51.7917 94.1667Z" fill="#FFFFFF" transform="matrix(1.00885 0 0 1 796 298)"/><path d="M51.674 70.7427C53.0865 69.3302 53.0865 67.0938 51.674 65.799L33.076 47.201C31.6635 45.7885 29.4271 45.7885 28.1323 47.201L23.5417 51.7917 47.0833 75.3333 51.674 70.7427Z" fill="#FFFFFF" transform="matrix(1.00885 0 0 1 796 298)"/><path d="M79.924 37.549C81.3365 38.9615 83.5729 38.9615 84.8677 37.549L89.4583 32.9583 65.9167 9.41667 61.326 14.0073C59.9135 15.4198 59.9135 17.6562 61.326 18.951L79.924 37.549Z" fill="#FFFFFF" transform="matrix(1.00885 0 0 1 796 298)"/><path d="M102.406 78.8646 70.625 47.0833 77.6875 40.0208 58.8542 21.1875 35.3125 44.7292 54.1458 63.5625 63.5625 54.1458 95.3438 85.9271C97.3448 87.9281 100.405 87.9281 102.406 85.9271 104.407 83.926 104.407 80.8656 102.406 78.8646Z" fill="#FFFFFF" transform="matrix(1.00885 0 0 1 796 298)"/></g></svg>