<svg width="96" height="96" xmlns="http://www.w3.org/2000/svg" xmlns:xlink="http://www.w3.org/1999/xlink" xml:space="preserve" overflow="hidden"><g transform="translate(-717 -216)"><path d="M740 264.5C740 269.194 736.194 273 731.5 273 726.806 273 723 269.194 723 264.5 723 259.806 726.806 256 731.5 256 736.194 256 740 259.806 740 264.5Z" fill="#FFFFFF"/><path d="M773 264.5C773 269.194 769.194 273 764.5 273 759.806 273 756 269.194 756 264.5 756 259.806 759.806 256 764.5 256 769.194 256 773 259.806 773 264.5Z" fill="#FFFFFF"/><path d="M806 264.5C806 269.194 802.194 273 797.5 273 792.806 273 789 269.194 789 264.5 789 259.806 792.806 256 797.5 256 802.194 256 806 259.806 806 264.5Z" fill="#FFFFFF"/></g></svg>