<svg width="96" height="96" xmlns="http://www.w3.org/2000/svg" xmlns:xlink="http://www.w3.org/1999/xlink" xml:space="preserve" overflow="hidden"><g transform="translate(-394 -109)"><path d="M428.081 160.423 421.206 160.423 421.206 153.6C421.738 153.936 422.355 154.114 422.985 154.114L429.34 154.114C431.073 154.134 432.548 152.855 432.771 151.136 432.959 149.314 431.634 147.685 429.812 147.497 429.699 147.486 429.585 147.48 429.471 147.48L424.071 147.48 421.261 145.418C420.733 145.016 420.225 144.587 419.741 144.133L419.351 143.782C418.169 142.729 416.596 142.226 415.023 142.4 412.121 142.753 409.955 145.242 410.005 148.165L410.005 161.45C410.008 164.561 412.528 167.082 415.639 167.085L424.766 167.085 424.766 177.742C424.744 179.476 426.024 180.951 427.743 181.174 427.854 181.185 427.965 181.19 428.075 181.19 429.905 181.196 431.394 179.717 431.4 177.887 431.4 177.883 431.4 177.878 431.4 177.874L431.4 163.74C431.398 161.908 429.913 160.424 428.081 160.423ZM418.9 149.408C418.455 149.08 417.829 149.175 417.501 149.62 417.174 150.064 417.268 150.69 417.713 151.018L419.213 152.118 419.213 162.418 428.088 162.418C428.815 162.421 429.402 163.013 429.4 163.74L429.4 177.874C429.401 178.601 428.812 179.191 428.086 179.191 428.038 179.191 427.991 179.189 427.944 179.184 427.243 179.071 426.738 178.451 426.768 177.742L426.768 165.085 415.639 165.085C413.633 165.082 412.007 163.456 412.005 161.45L412.005 148.143C411.966 146.242 413.369 144.619 415.255 144.381 416.261 144.271 417.265 144.594 418.019 145.269L418.4 145.611C418.935 146.111 419.495 146.583 420.078 147.026L423.418 149.475 429.472 149.475C430.199 149.475 430.789 150.065 430.789 150.792 430.788 150.839 430.786 150.886 430.781 150.932 430.668 151.633 430.049 152.139 429.34 152.109L422.987 152.109C422.706 152.108 422.432 152.02 422.204 151.856Z" fill="#FFFFFF"/><path d="M415.005 141.2C417.766 141.2 420.005 138.961 420.005 136.2 420.005 133.439 417.766 131.2 415.005 131.2 412.244 131.2 410.005 133.439 410.005 136.2 410.005 138.961 412.244 141.2 415.005 141.2ZM415.005 133.2C416.662 133.2 418.005 134.543 418.005 136.2 418.005 137.857 416.662 139.2 415.005 139.2 413.348 139.2 412.005 137.857 412.005 136.2 412.005 134.543 413.348 133.2 415.005 133.2Z" fill="#FFFFFF"/><path d="M422 170 415 170C410.584 169.995 407.005 166.416 407 162L407 149C407 148.448 406.552 148 406 148 405.448 148 405 148.448 405 149L405 162C405.005 166.751 408.347 170.844 413 171.8L413 180 408 180 408 182 420 182 420 180 415 180 415 172 422 172C422.552 172 423 171.552 423 171 423 170.448 422.552 170 422 170Z" fill="#FFFFFF"/><path d="M443 158 459 158C459.552 158 460 157.552 460 157 460 156.448 459.552 156 459 156L425 156C424.448 156 424 156.448 424 157 424 157.552 424.448 158 425 158L441 158 441 180 434 180 434 182 450 182 450 180 443 180Z" fill="#FFFFFF"/><path d="M474 161.45 474 148.178C474.055 145.244 471.88 142.745 468.967 142.393 467.398 142.225 465.832 142.727 464.653 143.776L464.263 144.128C463.779 144.582 463.271 145.011 462.743 145.413L459.932 147.475 454.532 147.475C452.699 147.475 451.214 148.961 451.215 150.794 451.215 150.906 451.22 151.019 451.232 151.131 451.456 152.85 452.931 154.13 454.664 154.109L461.02 154.109C461.65 154.111 462.267 153.934 462.8 153.6L462.8 160.428 455.927 160.428C454.096 160.43 452.612 161.914 452.609 163.745L452.609 177.874C452.608 179.705 454.092 181.189 455.923 181.19 455.926 181.19 455.93 181.19 455.933 181.19 456.043 181.19 456.153 181.19 456.265 181.174 457.984 180.951 459.264 179.475 459.242 177.742L459.242 167.085 468.369 167.085C471.478 167.08 473.997 164.559 474 161.45ZM461.8 151.856C461.572 152.02 461.299 152.108 461.018 152.109L454.668 152.109C453.959 152.137 453.341 151.632 453.226 150.932 453.149 150.209 453.672 149.56 454.396 149.482 454.442 149.478 454.489 149.475 454.536 149.475L460.59 149.475 463.93 147.026C464.513 146.584 465.073 146.111 465.607 145.611L465.989 145.268C466.739 144.597 467.737 144.274 468.738 144.379 470.635 144.615 472.044 146.249 472 148.16L472 161.45C471.998 163.456 470.372 165.082 468.366 165.085L457.242 165.085 457.242 177.742C457.272 178.452 456.766 179.072 456.065 179.184 455.692 179.227 455.319 179.105 455.043 178.851 454.766 178.602 454.607 178.247 454.609 177.874L454.609 163.74C454.61 163.013 455.2 162.424 455.927 162.423L464.8 162.423 464.8 152.123 466.3 151.023C466.745 150.695 466.839 150.069 466.511 149.624 466.183 149.179 465.557 149.085 465.112 149.413Z" fill="#FFFFFF"/><path d="M469 141.2C471.761 141.2 474 138.961 474 136.2 474 133.439 471.761 131.2 469 131.2 466.239 131.2 464 133.439 464 136.2 464 138.961 466.239 141.2 469 141.2ZM469 133.2C470.657 133.2 472 134.543 472 136.2 472 137.857 470.657 139.2 469 139.2 467.343 139.2 466 137.857 466 136.2 466 134.543 467.343 133.2 469 133.2Z" fill="#FFFFFF"/><path d="M478 148C477.448 148 477 148.448 477 149L477 162C476.995 166.416 473.416 169.995 469 170L462 170C461.448 170 461 170.448 461 171 461 171.552 461.448 172 462 172L469 172 469 180 464 180 464 182 476 182 476 180 471 180 471 171.8C475.653 170.844 478.994 166.75 479 162L479 149C479 148.448 478.552 148 478 148Z" fill="#FFFFFF"/></g></svg>