<svg width="585" height="585" xmlns="http://www.w3.org/2000/svg" xmlns:xlink="http://www.w3.org/1999/xlink" xml:space="preserve" overflow="hidden"><g transform="translate(-278 -1518)"><path d="M655.203 1898.25C702.734 1852.55 705.172 1776.98 660.078 1728.23 708.219 1753.22 747.828 1791.61 770.984 1817.2 746.609 1840.97 705.172 1876.31 655.203 1898.25ZM415.719 1772.72C435.828 1755.66 457.156 1741.03 480.313 1728.84 435.828 1777.59 438.266 1852.55 485.797 1898.25 435.828 1876.31 393.781 1840.97 370.016 1817.2 384.031 1801.36 399.266 1786.73 415.719 1772.72L415.719 1772.72ZM570.5 1908C516.875 1908 473 1864.12 473 1810.5 473 1756.88 516.875 1713 570.5 1713 624.125 1713 668 1756.88 668 1810.5 668 1864.12 624.125 1908 570.5 1908ZM807.547 1800.14C772.203 1758.7 679.578 1664.25 570.5 1664.25 461.422 1664.25 368.797 1758.7 333.453 1800.14 324.313 1811.11 324.922 1826.34 334.672 1836.7 370.625 1874.48 462.641 1956.75 570.5 1956.75 678.359 1956.75 770.375 1874.48 806.938 1836.7 816.078 1826.95 816.688 1811.11 807.547 1800.14Z" fill="#FFFFFF"/><path d="M631.438 1810.5C631.438 1844.15 604.155 1871.44 570.5 1871.44 536.845 1871.44 509.563 1844.15 509.563 1810.5 509.563 1776.85 536.845 1749.56 570.5 1749.56 604.155 1749.56 631.438 1776.85 631.438 1810.5Z" fill="#FFFFFF"/><path d="M449.5 1811.5C449.5 1745.23 503.226 1691.5 569.5 1691.5 635.774 1691.5 689.5 1745.23 689.5 1811.5 689.5 1877.77 635.774 1931.5 569.5 1931.5 503.226 1931.5 449.5 1877.77 449.5 1811.5Z" stroke="#000000" stroke-width="6.875" stroke-miterlimit="8" fill-rule="evenodd"/><g><g><g><path d="M563.833 1712.83C512.167 1715.42 470.833 1758.82 470.833 1811 470.833 1865.25 514.75 1909.17 569 1909.17 593.542 1909.17 616.533 1900.38 634.617 1883.85L563.833 1813.07 563.833 1712.83Z" fill="#FFFFFF"/><path d="M574.167 1712.83 574.167 1805.83 666.908 1805.83C664.325 1755.46 624.283 1715.42 574.167 1712.83Z" fill="#FFFFFF"/><path d="M581.4 1816.17 641.85 1876.62C657.092 1859.82 665.875 1838.64 666.908 1816.17L581.4 1816.17Z" fill="#FFFFFF"/></g></g></g></g></svg>