<svg width="483" height="488" xmlns="http://www.w3.org/2000/svg" xmlns:xlink="http://www.w3.org/1999/xlink" xml:space="preserve" overflow="hidden"><g transform="translate(-3123 -630)"><g><g><g><path d="M3294.88 733.125 3281.12 733.125C3273.56 733.125 3267.38 726.938 3267.38 719.375L3267.38 691.875C3267.38 684.313 3273.56 678.125 3281.12 678.125L3294.88 678.125C3302.44 678.125 3308.62 684.313 3308.62 691.875L3308.62 719.375C3308.62 726.938 3302.44 733.125 3294.88 733.125Z" fill="#FFFFFF"/><path d="M3398 801.875 3315.5 801.875 3315.5 788.125 3398 788.125 3398 801.875ZM3398 843.125 3315.5 843.125 3315.5 829.375 3398 829.375 3398 843.125ZM3398 884.375 3315.5 884.375 3315.5 870.625 3398 870.625 3398 884.375ZM3288 884.375 3178 884.375 3178 856.875C3178 852.75 3180.06 848.625 3183.5 845.875 3191.06 840.375 3200.69 835.563 3210.31 832.813 3217.88 830.75 3225.44 829.375 3233 829.375 3241.25 829.375 3248.81 830.75 3255.69 832.813 3265.31 835.563 3274.94 839.688 3282.5 845.875 3285.94 848.625 3288 852.75 3288 856.875L3288 884.375ZM3233 767.5C3248.12 767.5 3260.5 779.875 3260.5 795 3260.5 810.125 3248.12 822.5 3233 822.5 3217.88 822.5 3205.5 810.125 3205.5 795 3205.5 779.875 3217.88 767.5 3233 767.5ZM3411.75 719.375 3322.38 719.375C3322.38 734.5 3310 746.875 3294.88 746.875L3281.12 746.875C3266 746.875 3253.62 734.5 3253.62 719.375L3164.25 719.375C3156.69 719.375 3150.5 725.563 3150.5 733.125L3150.5 898.125C3150.5 905.688 3156.69 911.875 3164.25 911.875L3411.75 911.875C3419.31 911.875 3425.5 905.688 3425.5 898.125L3425.5 733.125C3425.5 725.563 3419.31 719.375 3411.75 719.375Z" fill="#FFFFFF"/></g></g></g><g><g><g><path d="M3447.88 891.125 3434.12 891.125C3426.56 891.125 3420.38 884.937 3420.38 877.375L3420.38 849.875C3420.38 842.312 3426.56 836.125 3434.12 836.125L3447.88 836.125C3455.44 836.125 3461.62 842.312 3461.62 849.875L3461.62 877.375C3461.62 884.937 3455.44 891.125 3447.88 891.125Z" stroke="#FFFFFF" stroke-width="3.4375" stroke-dasharray="13.75 10.3125" fill="none"/><path d="M3551 959.875 3468.5 959.875 3468.5 946.125 3551 946.125 3551 959.875ZM3551 1001.12 3468.5 1001.12 3468.5 987.375 3551 987.375 3551 1001.12ZM3551 1042.37 3468.5 1042.37 3468.5 1028.62 3551 1028.62 3551 1042.37ZM3441 1042.37 3331 1042.37 3331 1014.87C3331 1010.75 3333.06 1006.62 3336.5 1003.87 3344.06 998.375 3353.69 993.562 3363.31 990.812 3370.88 988.75 3378.44 987.375 3386 987.375 3394.25 987.375 3401.81 988.75 3408.69 990.812 3418.31 993.562 3427.94 997.687 3435.5 1003.87 3438.94 1006.62 3441 1010.75 3441 1014.87L3441 1042.37ZM3386 925.5C3401.12 925.5 3413.5 937.875 3413.5 953 3413.5 968.125 3401.12 980.5 3386 980.5 3370.88 980.5 3358.5 968.125 3358.5 953 3358.5 937.875 3370.88 925.5 3386 925.5ZM3564.75 877.375 3475.38 877.375C3475.38 892.5 3463 904.875 3447.88 904.875L3434.12 904.875C3419 904.875 3406.62 892.5 3406.62 877.375L3317.25 877.375C3309.69 877.375 3303.5 883.562 3303.5 891.125L3303.5 1056.12C3303.5 1063.69 3309.69 1069.87 3317.25 1069.87L3564.75 1069.87C3572.31 1069.87 3578.5 1063.69 3578.5 1056.12L3578.5 891.125C3578.5 883.562 3572.31 877.375 3564.75 877.375Z" stroke="#FFFFFF" stroke-width="3.4375" stroke-dasharray="13.75 10.3125" fill="none"/></g></g></g></g></svg>