<svg width="96" height="96" xmlns="http://www.w3.org/2000/svg" xmlns:xlink="http://www.w3.org/1999/xlink" xml:space="preserve" overflow="hidden"><g transform="translate(-596 -109)"><path d="M660.9 154.913C660.87 154.133 661.159 153.375 661.7 152.813 662.323 152.371 662.997 152.006 663.708 151.726 669.057 149.341 675.174 149.377 680.494 151.826 681.066 152.048 681.605 152.349 682.094 152.72 682.661 153.311 682.984 154.094 683 154.913L683 164.957C683.695 165.474 684.362 166.027 685 166.613L685 154.913C685.013 153.557 684.474 152.255 683.507 151.305 682.853 150.76 682.118 150.321 681.328 150.005 675.507 147.281 668.786 147.235 662.928 149.88 662.043 150.228 661.206 150.691 660.441 151.256 659.425 152.197 658.864 153.529 658.9 154.913L658.9 156.118C659.575 156.223 660.242 156.334 660.9 156.453Z" fill="#FFFFFF"/><path d="M671.954 146.911C675.82 146.911 678.954 143.777 678.954 139.911 678.954 136.045 675.82 132.911 671.954 132.911 668.088 132.911 664.954 136.045 664.954 139.911 664.931 143.754 668.027 146.888 671.87 146.911 671.898 146.911 671.926 146.911 671.954 146.911ZM671.954 134.911C674.714 134.915 676.95 137.151 676.954 139.911 676.954 142.672 674.715 144.911 671.954 144.911 669.193 144.911 666.954 142.672 666.954 139.911 666.954 137.15 669.193 134.911 671.954 134.911Z" fill="#FFFFFF"/><path d="M605 154.913C605.006 154.479 605.096 154.049 605.267 153.65 605.499 153.096 605.91 152.635 606.434 152.34 606.845 152.107 607.271 151.901 607.709 151.725 613.058 149.34 619.175 149.377 624.495 151.825 625.067 152.047 625.606 152.348 626.095 152.719 626.662 153.311 626.985 154.094 627 154.913L627 156.47C627.659 156.351 628.326 156.239 629 156.133L629 154.913C628.982 153.564 628.448 152.274 627.508 151.306 626.858 150.755 626.121 150.316 625.327 150.006 619.506 147.282 612.785 147.236 606.927 149.881 606.065 150.221 605.25 150.669 604.5 151.213L604.342 151.361C603.446 152.323 602.964 153.599 603 154.913L603 166.613C603.638 166.027 604.305 165.475 605 164.958Z" fill="#FFFFFF"/><path d="M644 142.909C647.866 142.909 651 139.775 651 135.909 651 132.043 647.866 128.909 644 128.909 640.134 128.909 637 132.043 637 135.909 636.977 139.752 640.073 142.886 643.916 142.909 643.944 142.909 643.972 142.909 644 142.909ZM644 130.909C646.76 130.912 648.997 133.149 649 135.909 649 138.67 646.761 140.909 644 140.909 641.239 140.909 639 138.67 639 135.909 639 133.148 641.239 130.909 644 130.909Z" fill="#FFFFFF"/><path d="M616 146.911C619.866 146.911 623 143.777 623 139.911 623 136.045 619.866 132.911 616 132.911 612.134 132.911 609 136.045 609 139.911 608.977 143.754 612.073 146.888 615.916 146.911 615.944 146.911 615.972 146.911 616 146.911ZM616 134.911C618.76 134.915 620.996 137.151 621 139.911 621 142.672 618.761 144.911 616 144.911 613.239 144.911 611 142.672 611 139.911 611 137.15 613.239 134.911 616 134.911Z" fill="#FFFFFF"/><path d="M632.9 150.912C632.87 150.132 633.159 149.374 633.7 148.812 634.323 148.369 634.997 148.004 635.708 147.725 641.057 145.339 647.175 145.376 652.495 147.825 653.068 148.046 653.606 148.347 654.095 148.718 654.661 149.31 654.985 150.093 655 150.912L655 155.6C655.673 155.675 656.34 155.756 657 155.844L657 150.912C656.984 149.562 656.45 148.269 655.51 147.3 654.861 146.749 654.124 146.309 653.33 146 647.509 143.276 640.788 143.23 634.93 145.875 634.044 146.224 633.207 146.686 632.441 147.251 631.425 148.193 630.863 149.527 630.9 150.912L630.9 155.857C631.561 155.768 632.227 155.686 632.9 155.61Z" fill="#FFFFFF"/><path d="M644 157C619.327 157 600 165.565 600 176.5 600 187.435 619.327 196 644 196 668.673 196 688 187.435 688 176.5 688 165.565 668.673 157 644 157ZM644 194C621.233 194 602 185.986 602 176.5 602 167.014 621.233 159 644 159 666.767 159 686 167.014 686 176.5 686 185.986 666.767 194 644 194Z" fill="#FFFFFF"/></g></svg>