<svg width="702" height="404" xmlns="http://www.w3.org/2000/svg" xmlns:xlink="http://www.w3.org/1999/xlink" xml:space="preserve" overflow="hidden"><g transform="translate(-476 -1038)"><g><g><g><path d="M307.208 345.083 96.7916 345.083 96.7916 84.1666 143.083 84.1666 143.083 109.417 260.917 109.417 260.917 84.1666 307.208 84.1666 307.208 345.083ZM202 50.5C209.154 50.5 214.625 55.9708 214.625 63.125 214.625 70.2792 209.154 75.75 202 75.75 194.846 75.75 189.375 70.2792 189.375 63.125 189.375 59.7583 190.637 56.3917 193.162 54.2875 195.267 51.7625 198.633 50.5 202 50.5ZM315.625 58.9167 244.083 58.9167 244.083 50.5C244.083 41.2417 236.508 33.6667 227.25 33.6667L176.75 33.6667C167.492 33.6667 159.917 41.2417 159.917 50.5L159.917 58.9167 88.375 58.9167C79.1166 58.9167 71.5417 66.4917 71.5417 75.75L71.5417 353.5C71.5417 362.758 79.1166 370.333 88.375 370.333L315.625 370.333C324.883 370.333 332.458 362.758 332.458 353.5L332.458 75.75C332.458 66.4917 324.883 58.9167 315.625 58.9167Z" fill="#FFFFFF" transform="matrix(1.00248 0 0 1 624 1038)"/></g></g></g><g><g><g><path d="M660.021 1328.71 533.979 1328.71 533.979 1172.42 561.708 1172.42 561.708 1187.54 632.292 1187.54 632.292 1172.42 660.021 1172.42 660.021 1328.71ZM597 1152.25C601.286 1152.25 604.563 1155.53 604.563 1159.81 604.563 1164.1 601.286 1167.38 597 1167.38 592.715 1167.38 589.438 1164.1 589.438 1159.81 589.438 1157.8 590.194 1155.78 591.706 1154.52 592.967 1153.01 594.983 1152.25 597 1152.25ZM665.063 1157.29 622.208 1157.29 622.208 1152.25C622.208 1146.7 617.671 1142.17 612.125 1142.17L581.875 1142.17C576.329 1142.17 571.792 1146.7 571.792 1152.25L571.792 1157.29 528.938 1157.29C523.392 1157.29 518.854 1161.83 518.854 1167.38L518.854 1333.75C518.854 1339.3 523.392 1343.83 528.938 1343.83L665.063 1343.83C670.608 1343.83 675.146 1339.3 675.146 1333.75L675.146 1167.38C675.146 1161.83 670.608 1157.29 665.063 1157.29Z" fill="#FFFFFF"/></g></g></g><g><g><g><path d="M1120.02 1327.71 993.979 1327.71 993.979 1171.42 1021.71 1171.42 1021.71 1186.54 1092.29 1186.54 1092.29 1171.42 1120.02 1171.42 1120.02 1327.71ZM1057 1151.25C1061.29 1151.25 1064.56 1154.53 1064.56 1158.81 1064.56 1163.1 1061.29 1166.38 1057 1166.38 1052.71 1166.38 1049.44 1163.1 1049.44 1158.81 1049.44 1156.8 1050.19 1154.78 1051.71 1153.52 1052.97 1152.01 1054.98 1151.25 1057 1151.25ZM1125.06 1156.29 1082.21 1156.29 1082.21 1151.25C1082.21 1145.7 1077.67 1141.17 1072.12 1141.17L1041.88 1141.17C1036.33 1141.17 1031.79 1145.7 1031.79 1151.25L1031.79 1156.29 988.938 1156.29C983.392 1156.29 978.854 1160.83 978.854 1166.38L978.854 1332.75C978.854 1338.3 983.392 1342.83 988.938 1342.83L1125.06 1342.83C1130.61 1342.83 1135.15 1338.3 1135.15 1332.75L1135.15 1166.38C1135.15 1160.83 1130.61 1156.29 1125.06 1156.29Z" fill="#FFFFFF"/></g></g></g></g></svg>