<svg width="96" height="96" xmlns="http://www.w3.org/2000/svg" xmlns:xlink="http://www.w3.org/1999/xlink" xml:space="preserve" overflow="hidden"><g transform="translate(-799 -109)"><path d="M881 160.7 874.1 148.7 874.1 148.2C874.523 137.185 868.881 126.823 859.4 121.2 854.248 118.353 848.44 116.905 842.554 117 836.666 116.904 830.855 118.352 825.7 121.2 816.219 126.823 810.577 137.185 811 148.2 810.994 152.32 811.81 156.399 813.4 160.2 815.292 164.588 819.622 167.422 824.4 167.4L843 167.4C846.31 167.41 848.99 170.09 849 173.4L849 178.2C849.013 180.665 850.515 182.877 852.8 183.8L854.2 184.4 863.3 187.9C867.421 189.511 872.067 187.477 873.678 183.356 873.686 183.338 873.693 183.319 873.7 183.3 874.067 182.379 874.238 181.391 874.2 180.4L874.2 167.7 878.6 167.7C881.1 167.4 883.4 164.4 881 160.7ZM879.828 164.622C879.568 165.178 879.061 165.577 878.46 165.7L872.2 165.7 872.2 180.4C872.236 181.111 872.124 181.822 871.872 182.488L871.85 182.537 871.831 182.588C870.645 185.688 867.17 187.239 864.07 186.053 864.053 186.047 864.035 186.04 864.018 186.033L854.953 182.547 853.588 181.962 853.558 181.949 853.529 181.938C852.012 181.313 851.015 179.841 851 178.2L851 173.4C850.995 168.984 847.416 165.405 843 165.4L824.4 165.4C820.429 165.413 816.83 163.064 815.243 159.424 813.762 155.867 812.999 152.053 813 148.2L813 148.164 813 148.127C812.597 137.845 817.864 128.17 826.718 122.927 831.562 120.255 837.023 118.901 842.554 119 848.084 118.901 853.544 120.253 858.388 122.923 867.242 128.165 872.509 137.841 872.105 148.123L872.105 149.23 872.371 149.693 879.271 161.693 879.298 161.739 879.327 161.784C879.982 162.576 880.174 163.653 879.832 164.622Z" fill="#FFFFFF"/><path d="M836.5 155.9 836.5 148.4 829 148.4C829.012 152.537 832.363 155.888 836.5 155.9Z" fill="#FFFFFF"/><path d="M836.5 141 836.5 148.4 843.9 148.4C843.917 144.33 840.632 141.017 836.562 141 836.541 141 836.521 141 836.5 141Z" fill="#FFFFFF"/><path d="M865 144.4C862.791 144.4 861 146.191 861 148.4 861 150.609 862.791 152.4 865 152.4 867.209 152.4 869 150.609 869 148.4 869.024 146.215 867.272 144.424 865.086 144.4 865.058 144.4 865.029 144.4 865 144.4ZM865 150.4C863.895 150.4 863 149.505 863 148.4 863 147.295 863.895 146.4 865 146.4 866.105 146.4 867 147.295 867 148.4 867.025 149.48 866.169 150.375 865.089 150.4 865.059 150.401 865.03 150.401 865 150.4Z" fill="#FFFFFF"/><path d="M844 175 825 175C824.448 175 824 175.448 824 176 824 176.552 824.448 177 825 177L844 177C844.552 177 845 176.552 845 176 845 175.448 844.552 175 844 175Z" fill="#FFFFFF"/><path d="M844 184 825 184C824.448 184 824 184.448 824 185 824 185.552 824.448 186 825 186L844 186C844.552 186 845 185.552 845 185 845 184.448 844.552 184 844 184Z" fill="#FFFFFF"/><path d="M844 193 825 193C824.448 193 824 193.448 824 194 824 194.552 824.448 195 825 195L844 195C844.552 195 845 194.552 845 194 845 193.448 844.552 193 844 193Z" fill="#FFFFFF"/><path d="M836.5 137.4C830.425 137.4 825.5 142.325 825.5 148.4 825.5 154.475 830.425 159.4 836.5 159.4 842.575 159.4 847.5 154.475 847.5 148.4 847.518 142.343 842.622 137.418 836.564 137.4 836.543 137.4 836.521 137.4 836.5 137.4ZM836.5 157.4C831.529 157.4 827.5 153.371 827.5 148.4 827.5 143.429 831.529 139.4 836.5 139.4 841.471 139.4 845.5 143.429 845.5 148.4 845.495 153.368 841.468 157.395 836.5 157.4Z" fill="#FFFFFF"/></g></svg>