<svg width="96" height="96" xmlns="http://www.w3.org/2000/svg" xmlns:xlink="http://www.w3.org/1999/xlink" xml:space="preserve" overflow="hidden"><g transform="translate(-592 -312)"><path d="M639.971 393.053C624.503 393.057 611.959 380.521 611.955 365.053 611.951 349.585 624.487 337.041 639.955 337.037 655.423 337.033 667.967 349.569 667.971 365.037 667.971 365.04 667.971 365.042 667.971 365.045 667.999 380.486 655.504 393.025 640.063 393.053 640.032 393.053 640.002 393.053 639.971 393.053ZM663.671 340.638 666.671 337.638C667.792 336.446 667.747 334.575 666.571 333.438 665.414 332.309 663.581 332.266 662.371 333.338L658.971 336.838C654.214 333.615 648.7 331.685 642.971 331.238L642.971 327.038 651.971 327.038 651.971 321.038 627.971 321.038 627.971 327.038 636.971 327.038 636.971 331.138C618.213 332.77 604.329 349.3 605.962 368.058 607.594 386.816 624.123 400.699 642.881 399.067 661.64 397.435 675.523 380.906 673.891 362.147 673.18 353.982 669.552 346.346 663.671 340.638Z" fill="#FFFFFF"/><path d="M615.969 365.03C615.976 378.278 626.721 389.013 639.969 389.006 653.217 388.999 663.952 378.254 663.945 365.006 663.938 351.767 653.208 341.037 639.969 341.03L639.969 365.03Z" fill="#FFFFFF"/></g></svg>