<svg width="405" height="480" xmlns="http://www.w3.org/2000/svg" xmlns:xlink="http://www.w3.org/1999/xlink" xml:space="preserve" overflow="hidden"><g transform="translate(-1535 -1318)"><g><g><g><path d="M202.5 84.375C210.655 84.375 217.266 77.7642 217.266 69.6094 217.266 61.4545 210.655 54.8437 202.5 54.8437L202.078 54.8437C194.051 54.9872 187.645 61.5819 187.734 69.6094 187.748 77.7583 194.351 84.3611 202.5 84.375ZM202.222 63.2812 202.5 63.2812C205.995 63.2812 208.828 66.1146 208.828 69.6098 208.828 73.1046 205.994 75.9375 202.5 75.9375 199.004 75.9375 196.171 73.1042 196.171 69.6089 196.171 69.5895 196.172 69.5697 196.172 69.5503 196.118 66.1513 198.822 63.3483 202.222 63.2812Z" fill="#FFFFFF" transform="matrix(1 0 0 1 1535 1365)"/><path d="M329.062 80.0676C329.062 70.748 321.507 63.1926 312.187 63.1926L248.906 63.1926 248.906 54.7551C248.89 43.1122 239.455 33.6777 227.812 33.6614L177.187 33.6614C165.543 33.6754 156.108 43.111 156.094 54.7551L156.094 63.1926 92.8125 63.1926C83.4975 63.2045 75.9493 70.7526 75.9375 80.0676L75.9375 354.375C75.9375 363.695 83.4928 371.25 92.8125 371.25L312.187 371.25C321.507 371.25 329.062 363.695 329.062 354.375ZM147.656 71.6301 164.531 71.6301 164.531 54.7551C164.531 47.7651 170.197 42.0989 177.187 42.0989L227.812 42.0989C234.803 42.0989 240.469 47.7651 240.469 54.7551L240.469 71.6301 257.344 71.6301 257.344 105.469 147.656 105.469ZM312.187 362.812 92.8125 362.812C88.1525 362.812 84.375 359.035 84.375 354.375L84.375 80.0676C84.375 75.4076 88.1525 71.6301 92.8125 71.6301L139.219 71.6301 139.219 113.906 265.781 113.906 265.781 71.6301 312.187 71.6301C316.848 71.6301 320.625 75.4076 320.625 80.0676L320.625 354.375C320.625 359.035 316.848 362.812 312.187 362.812Z" fill="#FFFFFF" transform="matrix(1 0 0 1 1535 1365)"/></g></g></g><rect x="1676.5" y="1320.5" width="244" height="256" stroke="#FFFFFF" stroke-width="4.58333" stroke-miterlimit="8" stroke-dasharray="18.3333 13.75" fill="none"/><rect x="1547.5" y="1621.5" width="190" height="174" stroke="#FFFFFF" stroke-width="4.58333" stroke-miterlimit="8" stroke-dasharray="18.3333 13.75" fill="none"/></g></svg>