<svg width="121" height="120" xmlns="http://www.w3.org/2000/svg" xmlns:xlink="http://www.w3.org/1999/xlink" xml:space="preserve" overflow="hidden"><g transform="translate(-705 -456)"><path d="M108.75 45 108.75 40 80 40 80 13.75 75 13.75 75 40 45 40 45 13.75 40 13.75 40 40 11.25 40 11.25 45 40 45 40 75 11.25 75 11.25 80 40 80 40 106.25 45 106.25 45 80 75 80 75 106.25 80 106.25 80 80 108.75 80 108.75 75 80 75 80 45ZM75 75 45 75 45 45 75 45Z" fill="#FFFFFF" transform="matrix(1.00833 0 0 1 705 456)"/><path d="M25 83.75C19.4771 83.75 15 88.2271 15 93.75 15 99.2729 19.4771 103.75 25 103.75 30.5229 103.75 35 99.2729 35 93.75 34.9938 88.2298 30.5203 83.7562 25 83.75ZM25 98.75C22.2386 98.75 20 96.5114 20 93.75 20 90.9886 22.2386 88.75 25 88.75 27.7614 88.75 30 90.9886 30 93.75 30 96.5114 27.7614 98.75 25 98.75Z" fill="#FFFFFF" transform="matrix(1.00833 0 0 1 705 456)"/><path d="M95 83.75C89.4771 83.75 85 88.2271 85 93.75 85 99.2729 89.4771 103.75 95 103.75 100.523 103.75 105 99.2729 105 93.75 104.994 88.2298 100.52 83.7562 95 83.75ZM95 98.75C92.2386 98.75 90 96.5114 90 93.75 90 90.9886 92.2386 88.75 95 88.75 97.7614 88.75 100 90.9886 100 93.75 100 96.5114 97.7614 98.75 95 98.75Z" fill="#FFFFFF" transform="matrix(1.00833 0 0 1 705 456)"/><path d="M25 36.25C30.5229 36.25 35 31.7729 35 26.25 35 20.7271 30.5229 16.25 25 16.25 19.4771 16.25 15 20.7271 15 26.25 15.0063 31.7703 19.4797 36.2438 25 36.25ZM25 21.25C27.7614 21.25 30 23.4886 30 26.25 30 29.0114 27.7614 31.25 25 31.25 22.2386 31.25 20 29.0114 20 26.25 20 23.4886 22.2386 21.25 25 21.25Z" fill="#FFFFFF" transform="matrix(1.00833 0 0 1 705 456)"/><path d="M50.7325 65.7325 54.2675 69.2675 60 63.535 65.7325 69.2675 69.2675 65.7325 63.535 60 69.2675 54.2675 65.7325 50.7325 60 56.465 54.2675 50.7325 50.7325 54.2675 56.465 60 50.7325 65.7325Z" fill="#FFFFFF" transform="matrix(1.00833 0 0 1 705 456)"/><path d="M89.2675 35.5175 95 29.785 100.732 35.5175 104.268 31.9825 98.535 26.25 104.268 20.5175 100.732 16.9825 95 22.715 89.2675 16.9825 85.7325 20.5175 91.465 26.25 85.7325 31.9825 89.2675 35.5175Z" fill="#FFFFFF" transform="matrix(1.00833 0 0 1 705 456)"/></g></svg>