<svg width="105" height="106" xmlns="http://www.w3.org/2000/svg" xmlns:xlink="http://www.w3.org/1999/xlink" xml:space="preserve" overflow="hidden"><g transform="translate(-564 -181)"><path d="M79.3898 30.1711 74.0425 35.5184 68.6952 30.1711 65.602 33.2642 70.9494 38.6116 65.602 43.9589 68.6952 47.0531 74.0425 41.7047 79.3898 47.0531 82.4841 43.9589 77.1356 38.6116 82.4841 33.2642 79.3898 30.1711Z" fill="#FFFFFF" transform="matrix(1 0 0 1.00952 564 181)"/><path d="M53.9383 43.5312C54.3125 42.9259 54.7526 42.3639 55.2508 41.8556L52.92 39.5456C52.2534 40.2242 51.6632 40.9738 51.1602 41.7812 50.9768 42.0715 50.8152 42.3749 50.6767 42.6891L53.6845 44.0016C53.7572 43.8386 53.8419 43.6814 53.9383 43.5312Z" fill="#FFFFFF" transform="matrix(1 0 0 1.00952 564 181)"/><path d="M60.1037 39.4745 59.6378 36.2272C58.3852 36.4024 57.1676 36.7714 56.0284 37.3209L57.4645 40.2741C58.2976 39.8727 59.188 39.6029 60.1037 39.4745Z" fill="#FFFFFF" transform="matrix(1 0 0 1.00952 564 181)"/><path d="M50.7883 47.2172C51.3773 48.348 52.1497 49.3733 53.0742 50.2513L55.4192 47.9544C54.7516 47.3272 54.1872 46.5986 53.7469 45.7953Z" fill="#FFFFFF" transform="matrix(1 0 0 1.00952 564 181)"/><path d="M66.0144 36.7259C65.1378 36.4534 64.236 36.2702 63.3227 36.1791L62.9661 39.4417C63.6429 39.5098 64.312 39.6408 64.9644 39.8333Z" fill="#FFFFFF" transform="matrix(1 0 0 1.00952 564 181)"/><path d="M61.0389 59.7188 64.0938 58.5156C63.6453 57.3845 63.07 56.3079 62.3787 55.3066L59.6673 57.155C60.2199 57.9551 60.68 58.8151 61.0389 59.7188Z" fill="#FFFFFF" transform="matrix(1 0 0 1.00952 564 181)"/><path d="M33.6317 74.3684C33.6842 74.3783 34.9606 74.5872 36.9841 74.8147L37.3417 71.5531C35.4233 71.3431 34.1917 71.1364 34.1797 71.1342Z" fill="#FFFFFF" transform="matrix(1 0 0 1.00952 564 181)"/><path d="M40.32 75.1111C41.4542 75.1888 42.583 75.2423 43.6723 75.2686L43.7511 71.9873C42.7098 71.9633 41.6314 71.913 40.5453 71.8386Z" fill="#FFFFFF" transform="matrix(1 0 0 1.00952 564 181)"/><path d="M53.2066 71.3442 53.8333 74.5664C54.9829 74.3468 56.1158 74.0475 57.2239 73.6706L56.1509 70.5698C55.1888 70.8963 54.2049 71.1551 53.2066 71.3442Z" fill="#FFFFFF" transform="matrix(1 0 0 1.00952 564 181)"/><path d="M58.7792 69.3438 60.5292 72.1197C61.638 71.4355 62.6076 70.5483 63.3872 69.5045L60.7348 67.5708C60.201 68.2801 59.5373 68.8818 58.7792 69.3438Z" fill="#FFFFFF" transform="matrix(1 0 0 1.00952 564 181)"/><path d="M61.7312 62.4695C61.7831 62.9212 61.809 63.3755 61.8089 63.8302 61.8089 64.0336 61.8089 64.2392 61.7947 64.4481 61.7811 64.7217 61.7512 64.9941 61.705 65.2641L64.9381 65.8262C65.0071 65.4243 65.0517 65.0185 65.0716 64.6111 65.0847 64.3464 65.0902 64.0872 65.0902 63.8302 65.0904 63.2486 65.0567 62.6676 64.9895 62.09Z" fill="#FFFFFF" transform="matrix(1 0 0 1.00952 564 181)"/><path d="M57.7423 50.1747 55.5023 52.5711C56.2308 53.2525 57.0084 53.993 57.7566 54.798L60.1562 52.5634C59.3392 51.6819 58.4773 50.8594 57.7423 50.1747Z" fill="#FFFFFF" transform="matrix(1 0 0 1.00952 564 181)"/><path d="M46.9448 71.983 47.0411 75.2642C48.2256 75.2292 49.3653 75.1548 50.4317 75.0542L50.1113 71.7883C49.1192 71.8845 48.0539 71.9501 46.9448 71.983Z" fill="#FFFFFF" transform="matrix(1 0 0 1.00952 564 181)"/><path d="M39.083 45.9364 41.2705 45.9364 41.2705 43.3475 45.3556 43.3475 40.1778 30.403 35 43.3475 39.083 43.3475 39.083 45.9364Z" fill="#FFFFFF" transform="matrix(1 0 0 1.00952 564 181)"/><path d="M77.7809 65.7803 79.5309 65.7803 75.3123 55.7802 71.0938 65.7803 72.8427 65.7803 70 71.7183 74.2186 71.7183 74.2186 74.3739 76.4061 74.3739 76.4061 71.7183 80.6247 71.7183 77.7809 65.7803Z" fill="#FFFFFF" transform="matrix(1 0 0 1.00952 564 181)"/><path d="M48.125 64.5302 48.125 66.7177 50.3125 66.7177 50.3125 64.5302 53.5938 64.5302 49.2188 53.5927 45.9375 61.7958 42.6562 53.5927 38.2812 64.5302 41.5625 64.5302 41.5625 66.7177 43.75 66.7177 43.75 64.5302 44.8438 64.5302 47.0312 64.5302 48.125 64.5302Z" fill="#FFFFFF" transform="matrix(1 0 0 1.00952 564 181)"/><path d="M85.7992 17.5 29.5312 17.5 29.5312 6.5625 18.5938 6.5625C13.7635 6.56792 9.84918 10.4823 9.84375 15.3125L9.84375 78.75C9.84918 83.5802 13.7635 87.4945 18.5938 87.5L75.4688 87.5 75.4688 98.4375 86.4062 98.4375C91.2365 98.432 95.1508 94.5177 95.1562 89.6875L95.1562 26.25C94.9781 21.2547 90.7952 17.3433 85.7992 17.5ZM16.4062 15.3125C16.4062 14.1043 17.3856 13.125 18.5938 13.125L22.9688 13.125 22.9688 70 18.5938 70C17.8558 69.9997 17.1208 70.0926 16.4062 70.2767ZM16.4062 78.75C16.4062 77.5418 17.3856 76.5625 18.5938 76.5625L29.5312 76.5625 29.5312 24.0625 85.7992 24.0625C87.1636 23.9347 88.3902 24.8948 88.5938 26.25L88.5938 80.9375 18.5938 80.9375C17.3856 80.9375 16.4062 79.9582 16.4062 78.75ZM88.5938 89.6875C88.5938 90.8957 87.6144 91.875 86.4062 91.875L82.0312 91.875 82.0312 87.5 88.5938 87.5Z" fill="#FFFFFF" transform="matrix(1 0 0 1.00952 564 181)"/></g></svg>