<svg width="415" height="416" xmlns="http://www.w3.org/2000/svg" xmlns:xlink="http://www.w3.org/1999/xlink" xml:space="preserve" overflow="hidden"><defs><clipPath id="clip0"><rect x="3010" y="1246" width="187" height="120"/></clipPath><clipPath id="clip1"><rect x="3010" y="1246" width="187" height="120"/></clipPath></defs><g transform="translate(-2896 -1150)"><path d="M380.417 255.052 380.417 64.8437 319.896 64.8437 319.896 51.875C324.671 51.875 328.542 48.0042 328.542 43.2292 328.542 38.4542 324.671 34.5833 319.896 34.5833L302.604 34.5833C297.829 34.5833 293.958 38.4542 293.958 43.2292 293.958 48.0042 297.829 51.875 302.604 51.875L302.604 64.8437 216.146 64.8437 216.146 51.875C220.921 51.875 224.792 48.0042 224.792 43.2292 224.792 38.4542 220.921 34.5833 216.146 34.5833L198.854 34.5833C194.079 34.5833 190.208 38.4542 190.208 43.2292 190.208 48.0042 194.079 51.875 198.854 51.875L198.854 64.8437 112.396 64.8437 112.396 51.875C117.171 51.875 121.042 48.0042 121.042 43.2292 121.042 38.4542 117.171 34.5833 112.396 34.5833L95.1041 34.5833C90.329 34.5833 86.4583 38.4542 86.4583 43.2292 86.4583 48.0042 90.329 51.875 95.1041 51.875L95.1041 64.8437 34.5833 64.8437 34.5833 255.052 45.3906 255.052 45.3906 272.344 43.2292 272.344C38.4542 272.344 34.5833 276.214 34.5833 280.99 34.5833 285.765 38.4542 289.635 43.2292 289.635L90.7812 289.635 90.7812 380.417 116.719 380.417 116.719 289.635 298.281 289.635 298.281 380.417 324.219 380.417 324.219 289.635 371.771 289.635C376.546 289.635 380.417 285.765 380.417 280.99 380.417 276.214 376.546 272.344 371.771 272.344L369.609 272.344 369.609 255.052ZM252.891 255.052 252.891 272.344 233.956 272.344 251.248 255.052ZM265.859 272.344 265.859 255.052 284.794 255.052 267.502 272.344ZM215.627 272.344 213.984 272.344 213.984 255.052 232.919 255.052ZM201.016 255.052 201.016 272.344 182.081 272.344 199.373 255.052ZM163.752 272.344 162.109 272.344 162.109 255.052 181.044 255.052ZM149.141 255.052 149.141 272.344 130.206 272.344 147.498 255.052ZM111.877 272.344 110.234 272.344 110.234 255.052 129.169 255.052ZM97.2656 255.052 97.2656 272.344 78.3312 272.344 95.6229 255.052ZM303.123 255.052 304.766 255.052 304.766 272.344 285.831 272.344ZM317.734 272.344 317.734 255.052 336.669 255.052 319.377 272.344ZM51.875 82.1354 363.125 82.1354 363.125 237.76 51.875 237.76ZM58.3594 255.052 77.2937 255.052 60.0021 272.344 58.3594 272.344ZM356.641 272.344 337.706 272.344 354.998 255.052 356.641 255.052Z" fill="#FFFFFF" transform="matrix(1 0 0 1.00241 2896 1150)"/><g clip-path="url(#clip0)"><g clip-path="url(#clip1)"><g><path d="M288.902 65.3468C290.801 65.3468 292.341 63.8071 292.341 61.9075 292.341 60.008 290.801 58.4682 288.902 58.4682L168.526 58.4682 168.526 44.711C168.526 42.8115 166.986 41.2717 165.087 41.2717 163.187 41.2717 161.647 42.8115 161.647 44.711L161.647 58.4682 41.2717 58.4682C39.3722 58.4682 37.8324 60.008 37.8324 61.9075 37.8324 63.8071 39.3722 65.3468 41.2717 65.3468L55.0289 65.3468 55.0289 206.358 41.2717 206.358C39.3722 206.358 37.8324 207.898 37.8324 209.798 37.8324 211.697 39.3722 213.237 41.2717 213.237L156.784 213.237 95.5887 274.433C94.269 275.799 94.3068 277.976 95.6733 279.296 97.006 280.583 99.1191 280.583 100.452 279.296L161.647 218.1 161.647 288.902C161.647 290.801 163.187 292.341 165.087 292.341 166.986 292.341 168.526 290.801 168.526 288.902L168.526 218.1 229.722 279.296C231.088 280.616 233.265 280.578 234.585 279.211 235.872 277.879 235.872 275.765 234.585 274.433L173.389 213.237 288.902 213.237C290.801 213.237 292.341 211.697 292.341 209.798 292.341 207.898 290.801 206.358 288.902 206.358L275.145 206.358 275.145 65.3468ZM268.266 206.358 61.9075 206.358 61.9075 65.3468 268.266 65.3468Z" fill="#FFFFFF" transform="matrix(1 0 0 1.00021 2938.85 1167.97)"/><path d="M220.116 89.422 192.601 89.422 192.601 185.723 220.116 185.723ZM213.237 178.844 199.48 178.844 199.48 96.3006 213.237 96.3006Z" fill="#FFFFFF" transform="matrix(1 0 0 1.00021 2938.85 1167.97)"/><path d="M151.33 185.723 178.844 185.723 178.844 120.376 151.33 120.376ZM158.208 127.254 171.965 127.254 171.965 178.844 158.208 178.844Z" fill="#FFFFFF" transform="matrix(1 0 0 1.00021 2938.85 1167.97)"/><path d="M110.058 185.723 137.572 185.723 137.572 144.451 110.058 144.451ZM116.936 151.33 130.694 151.33 130.694 178.844 116.936 178.844Z" fill="#FFFFFF" transform="matrix(1 0 0 1.00021 2938.85 1167.97)"/></g></g></g></g></svg>