<svg width="119" height="119" xmlns="http://www.w3.org/2000/svg" xmlns:xlink="http://www.w3.org/1999/xlink" xml:space="preserve" overflow="hidden"><g transform="translate(-181 -463)"><path d="M242.607 506.881 270.746 495.105 266.035 483.701 201.329 510.476 206.04 521.88 235.294 509.732 213.973 561.175C213.477 562.415 214.097 563.902 215.336 564.398 215.708 564.646 215.956 564.646 216.328 564.646 217.32 564.646 218.188 564.026 218.559 563.158L229.22 537.375 237.029 537.375 237.029 567.125C237.029 568.489 238.145 569.604 239.508 569.604 240.872 569.604 241.988 568.489 241.988 567.125L241.988 537.375 249.797 537.375 260.457 563.158C260.829 564.15 261.821 564.646 262.689 564.646 263.06 564.646 263.308 564.646 263.68 564.398 264.92 563.902 265.54 562.415 265.044 561.175L242.607 506.881ZM231.327 532.417 237.029 518.533 237.029 532.417 231.327 532.417ZM241.988 532.417 241.988 518.533 247.814 532.417 241.988 532.417Z" fill="#FFFFFF"/><path d="M195.001 522.476 193.104 517.895 198.143 515.808 200.041 520.389Z" fill="#FFFFFF"/><path d="M281.282 474.776 269.506 479.362 276.2 495.477 287.852 490.767Z" fill="#FFFFFF"/></g></svg>