<svg width="96" height="96" xmlns="http://www.w3.org/2000/svg" xmlns:xlink="http://www.w3.org/1999/xlink" xml:space="preserve" overflow="hidden"><g transform="translate(-188 -312)"><path d="M216 354 256 354 256 356 216 356Z" fill="#FFFFFF"/><path d="M216 346 235 346 235 348 216 348Z" fill="#FFFFFF"/><path d="M216 362 256 362 256 364 216 364Z" fill="#FFFFFF"/><path d="M216 370 256 370 256 372 216 372Z" fill="#FFFFFF"/><path d="M216 378 256 378 256 380 216 380Z" fill="#FFFFFF"/><path d="M216 386 256 386 256 388 216 388Z" fill="#FFFFFF"/><path d="M206 320 206 400 266 400 266 341.586 244.414 320ZM245.017 323.431 262.569 340.983C262.573 340.987 262.573 340.993 262.569 340.997 262.567 340.999 262.565 341 262.562 341L245 341 245 323.438C245 323.432 245.005 323.428 245.01 323.428 245.013 323.428 245.015 323.429 245.017 323.431ZM208 398 208 322 243 322 243 343 264 343 264 398Z" fill="#FFFFFF"/></g></svg>