<svg width="447" height="447" xmlns="http://www.w3.org/2000/svg" xmlns:xlink="http://www.w3.org/1999/xlink" xml:space="preserve" overflow="hidden"><g transform="translate(-1452 -745)"><path d="M400.437 93.125 121.062 93.125C108.211 93.1403 97.7966 103.555 97.7812 116.406L97.7812 183.051C100.835 182.307 103.954 181.858 107.094 181.71L107.094 116.406C107.094 108.691 113.348 102.437 121.062 102.437L400.437 102.437C408.152 102.437 414.406 108.691 414.406 116.406L414.406 293.344C414.406 301.059 408.152 307.312 400.437 307.312L220.413 307.312 211.724 316.625 400.437 316.625C413.289 316.61 423.703 306.195 423.719 293.344L423.719 116.406C423.703 103.555 413.289 93.1403 400.437 93.125Z" fill="#FFFFFF" transform="matrix(1 0 0 1 1452 745)"/><path d="M265.406 235.927C264.982 223.65 254.687 214.041 242.409 214.465 236.51 214.668 230.934 217.208 226.908 221.526L161.623 291.835C145.486 283.903 127.783 279.669 109.804 279.44 109.678 279.44 109.566 279.366 109.436 279.366 109.087 279.366 108.747 279.398 108.397 279.403 107.964 279.403 107.541 279.366 107.108 279.366 106.951 279.389 106.795 279.422 106.642 279.463 84.7642 279.703 63.3781 285.988 44.849 297.623 37.995 302.062 33.0209 308.875 30.8802 316.755L19.9287 357.32C19.2617 359.802 20.7308 362.354 23.2114 363.024 23.6089 363.133 24.0192 363.188 24.4313 363.187 26.5356 363.186 28.3775 361.774 28.9246 359.742L39.8575 319.195C41.4011 313.53 44.9829 308.635 49.915 305.45 67.4281 294.484 87.6837 288.692 108.346 288.739 126.487 288.754 144.347 293.212 160.366 301.725 162.239 302.743 164.563 302.359 166.009 300.794L233.706 227.867C238.581 222.647 246.764 222.367 251.985 227.241 257.205 232.116 257.485 240.299 252.611 245.519L145.824 359.928C144.07 361.809 144.174 364.756 146.055 366.51 147.936 368.264 150.882 368.16 152.636 366.279L259.423 251.87C263.466 247.569 265.621 241.827 265.406 235.927Z" fill="#FFFFFF" transform="matrix(1 0 0 1 1452 745)"/><path d="M109.422 270.062C131.28 270.062 149 252.343 149 230.484 149 208.626 131.28 190.906 109.422 190.906 87.5635 190.906 69.8437 208.626 69.8437 230.484 69.8693 252.332 87.5743 270.037 109.422 270.062ZM109.422 200.219C126.137 200.219 139.687 213.769 139.687 230.484 139.687 247.2 126.137 260.75 109.422 260.75 92.7064 260.75 79.1562 247.2 79.1562 230.484 79.1767 213.778 92.7152 200.239 109.422 200.219Z" fill="#FFFFFF" transform="matrix(1 0 0 1 1452 745)"/><g><g><g><path d="M1822.12 958.768C1819.34 955.984 1815.16 954.593 1811.33 955.463L1803.51 947.808C1810.46 938.763 1814.29 927.629 1814.29 916.148 1814.47 887.097 1790.98 863.613 1762.1 863.439 1733.23 863.265 1709.74 886.749 1709.57 915.626 1709.39 944.503 1732.88 967.988 1761.76 968.162 1773.24 968.162 1784.54 964.334 1793.76 957.376L1801.42 965.03C1800.72 969.031 1801.94 973.032 1804.72 975.99L1826.47 997.734C1831.17 1002.43 1838.99 1002.43 1843.69 997.734 1848.39 993.038 1848.39 985.209 1843.69 980.513L1822.12 958.768ZM1762.1 957.724C1738.97 957.724 1720.35 939.111 1720.35 915.974 1720.35 892.838 1738.97 874.224 1762.1 874.224 1785.24 874.224 1803.85 892.838 1803.85 915.974 1803.85 938.937 1785.07 957.724 1762.1 957.724Z" fill="#FFFFFF"/><path d="M1799.51 913.365 1789.59 913.365C1788.72 913.539 1787.85 914.06 1787.33 914.756L1780.72 921.889 1775.15 902.579C1774.63 901.014 1772.89 899.97 1771.32 900.492 1770.45 900.84 1769.58 901.362 1769.24 902.405L1758.8 930.065 1751.67 891.794C1751.32 890.054 1749.75 889.01 1748.19 889.358 1747.14 889.532 1746.27 890.402 1745.75 891.446L1738.27 913.365 1724.7 913.365 1724.7 920.323 1740.53 920.323C1741.93 920.149 1743.14 919.105 1743.49 917.714L1747.84 904.493 1754.8 941.894C1754.97 943.286 1756.19 944.329 1757.58 944.329L1757.93 944.329C1759.15 944.329 1760.36 943.633 1760.89 942.416L1772.02 913.191 1776.54 928.847C1777.06 930.413 1778.63 931.456 1780.37 930.934 1780.89 930.76 1781.41 930.413 1781.76 930.065L1791.16 920.323 1799.68 920.323 1799.68 913.365Z" fill="#FFFFFF"/></g></g></g></g></svg>