<svg width="485" height="440" xmlns="http://www.w3.org/2000/svg" xmlns:xlink="http://www.w3.org/1999/xlink" xml:space="preserve" overflow="hidden"><g transform="translate(-1765 -1721)"><g><g><g><path d="M2123.84 1959.22C2109.41 1959.22 2098.06 1947.53 2098.06 1933.44 2098.06 1919.34 2109.75 1907.66 2123.84 1907.66 2138.28 1907.66 2149.62 1919.34 2149.62 1933.44 2149.62 1947.53 2137.94 1959.22 2123.84 1959.22ZM2181.94 1917.28C2180.56 1912.47 2178.84 1908 2176.44 1903.88L2181.94 1887.72 2169.56 1875.34 2153.41 1880.84C2149.28 1878.44 2144.81 1876.72 2140 1875.34L2132.44 1860.22 2115.25 1860.22 2107.69 1875.34C2102.88 1876.72 2098.41 1878.44 2094.28 1880.84L2078.12 1875.34 2065.75 1887.72 2071.25 1903.88C2068.84 1908 2067.12 1912.47 2065.75 1917.28L2050.62 1924.84 2050.62 1942.03 2065.75 1949.59C2067.12 1954.41 2068.84 1958.88 2071.25 1963L2065.75 1979.16 2077.78 1991.19 2093.94 1985.69C2098.06 1988.09 2102.53 1989.81 2107.34 1991.19L2114.91 2006.31 2132.09 2006.31 2139.66 1991.19C2144.47 1989.81 2148.94 1988.09 2153.06 1985.69L2169.22 1991.19 2181.59 1979.16 2176.09 1963C2178.5 1958.88 2180.56 1954.06 2181.94 1949.59L2197.06 1942.03 2197.06 1924.84 2181.94 1917.28Z" fill="#FFFFFF"/><path d="M2046.16 2084.34C2031.72 2084.34 2020.37 2072.66 2020.37 2058.56 2020.37 2044.13 2032.06 2032.78 2046.16 2032.78 2060.59 2032.78 2071.94 2044.47 2071.94 2058.56 2071.94 2072.66 2060.59 2084.34 2046.16 2084.34L2046.16 2084.34ZM2098.75 2029 2104.25 2012.84 2091.88 2000.47 2075.72 2005.97C2071.59 2003.56 2066.78 2001.84 2062.31 2000.47L2054.75 1985.34 2037.56 1985.34 2030 2000.47C2025.19 2001.84 2020.72 2003.56 2016.59 2005.97L2000.44 2000.47 1988.41 2012.5 1993.56 2028.66C1991.16 2032.78 1989.44 2037.59 1988.06 2042.06L1972.94 2049.62 1972.94 2066.81 1988.06 2074.38C1989.44 2079.19 1991.16 2083.66 1993.56 2087.78L1988.41 2103.94 2000.44 2115.97 2016.59 2110.81C2020.72 2113.22 2025.19 2114.94 2030 2116.31L2037.56 2131.44 2054.75 2131.44 2062.31 2116.31C2067.12 2114.94 2071.59 2113.22 2075.72 2110.81L2091.88 2116.31 2103.91 2103.94 2098.75 2088.12C2101.16 2084 2102.88 2079.53 2104.25 2074.72L2119.38 2067.16 2119.38 2049.97 2104.25 2042.41C2102.88 2037.59 2101.16 2033.13 2098.75 2029Z" fill="#FFFFFF"/></g></g></g><g><g><g><path d="M1846.13 1933.15 1837.53 1958.93 1857.13 1978.53 1882.91 1969.93C1889.75 1973.76 1897.02 1976.76 1904.56 1978.87L1916.59 2002.93 1944.09 2002.93 1956.13 1978.87C1963.58 1976.82 1970.75 1973.82 1977.44 1969.93L2003.22 1978.53 2022.81 1958.93 2014.22 1933.15C2018.04 1926.31 2021.04 1919.04 2023.16 1911.5L2047.22 1899.46 2047.22 1871.96 2022.81 1860.28C2020.76 1852.82 2017.76 1845.66 2013.88 1838.96L2022.47 1813.18 2002.88 1793.59 1977.09 1802.18C1970.25 1798.36 1962.98 1795.36 1955.44 1793.25L1943.75 1769.13 1916.25 1769.13 1904.22 1793.19C1896.76 1795.24 1889.6 1798.24 1882.91 1802.13L1857.13 1793.53 1837.53 1813.13 1846.13 1838.91C1842.3 1845.75 1839.3 1853.02 1837.19 1860.56L1813.13 1872.25 1813.13 1899.75 1837.19 1911.78C1839.23 1919.26 1842.24 1926.44 1846.13 1933.15ZM1820 1876.6 1840.19 1866.78 1843 1865.41 1843.82 1862.4C1845.8 1855.37 1848.59 1848.61 1852.15 1842.24L1853.6 1839.6 1852.65 1836.75 1845.4 1815 1858.98 1801.4 1880.73 1808.66 1883.67 1809.64 1886.35 1808.08C1892.53 1804.5 1899.14 1801.72 1906.03 1799.83L1909 1799.02 1910.37 1796.27 1920.51 1776 1939.45 1776 1949.25 1796.21 1950.63 1799.02 1953.64 1799.84C1960.66 1801.82 1967.42 1804.61 1973.79 1808.17L1976.43 1809.62 1979.28 1808.67 2001.03 1801.42 2014.62 1815.01 2007.36 1836.76 2006.38 1839.7 2007.94 1842.38C2011.53 1848.56 2014.3 1855.18 2016.19 1862.06L2017.02 1865.1 2019.85 1866.46 2040.34 1876.28 2040.34 1895.21 2020.08 1905.34 2017.33 1906.72 2016.52 1909.68C2014.55 1916.71 2011.75 1923.47 2008.19 1929.84L2006.75 1932.48 2007.69 1935.33 2014.95 1957.08 2001.36 1970.68 1979.61 1963.42 1976.67 1962.44 1973.99 1964C1967.81 1967.58 1961.2 1970.36 1954.31 1972.25L1951.35 1973.05 1949.97 1975.8 1939.84 1996.09 1920.85 1996.09 1910.72 1975.8 1909.34 1973.05 1906.38 1972.25C1899.36 1970.27 1892.59 1967.47 1886.23 1963.91L1883.59 1962.46 1880.74 1963.42 1858.99 1970.67 1845.4 1957.08 1852.66 1935.33 1853.63 1932.39 1852.08 1929.71C1848.49 1923.53 1845.72 1916.91 1843.83 1910.02L1843.02 1907.06 1840.27 1905.69 1820 1895.55Z" fill="#FFFFFF"/><path d="M1930 1927.31C1952.78 1927.31 1971.25 1908.84 1971.25 1886.06 1971.25 1863.28 1952.78 1844.81 1930 1844.81 1907.22 1844.81 1888.75 1863.28 1888.75 1886.06 1888.82 1908.81 1907.25 1927.24 1930 1927.31ZM1930 1851.66C1948.98 1851.66 1964.38 1867.05 1964.38 1886.03 1964.38 1905.02 1948.98 1920.41 1930 1920.41 1911.02 1920.41 1895.63 1905.02 1895.63 1886.03 1895.65 1867.06 1911.03 1851.68 1930 1851.66Z" fill="#FFFFFF"/></g></g></g></g></svg>