<svg width="103" height="103" xmlns="http://www.w3.org/2000/svg" xmlns:xlink="http://www.w3.org/1999/xlink" xml:space="preserve" overflow="hidden"><g transform="translate(-860 -497)"><path d="M940.254 520.39C937.679 520.39 935.533 518.244 935.533 515.669 935.533 513.094 937.679 510.948 940.254 510.948 942.829 510.948 944.975 513.094 944.975 515.669L944.975 515.669C944.975 518.244 942.829 520.39 940.254 520.39 940.254 520.39 940.254 520.39 940.254 520.39ZM940.254 504.51C936.606 504.51 933.173 506.334 931.134 509.339 929.096 512.343 928.667 516.205 929.954 519.639L934.997 530.69 939.289 539.809C939.61 540.346 940.254 540.56 940.683 540.239 940.898 540.131 941.005 540.024 941.112 539.809L945.404 530.69 950.447 519.639C951.734 516.205 951.305 512.343 949.267 509.339 947.335 506.334 943.902 504.51 940.254 504.51Z" fill="#FFFFFF"/><path d="M885.535 563.306C882.317 563.306 879.634 560.624 879.634 557.405 879.634 554.186 882.317 551.504 885.535 551.504 888.754 551.504 891.436 554.186 891.436 557.405 891.436 557.405 891.436 557.405 891.436 557.405 891.436 560.624 888.754 563.306 885.535 563.306 885.535 563.306 885.535 563.306 885.535 563.306L885.535 563.306ZM885.535 543.672C881.029 543.672 876.737 545.925 874.162 549.68 871.588 553.435 871.051 558.264 872.768 562.448L878.991 576.181 884.355 587.447C884.677 588.091 885.535 588.305 886.179 587.983 886.394 587.876 886.608 587.661 886.716 587.447L892.08 576.181 898.303 562.448C899.912 558.264 899.376 553.435 896.908 549.68 894.333 545.925 890.042 543.672 885.535 543.672L885.535 543.672Z" fill="#FFFFFF"/><path d="M900.556 588.198 897.767 588.198C896.479 588.198 895.299 588.198 894.119 588.198L894.119 581.76C895.192 581.76 896.479 581.76 897.767 581.76L900.556 581.76 900.556 588.198Z" fill="#FFFFFF"/><path d="M904.955 588.198 904.955 581.76C907.316 581.76 909.354 581.76 911.285 581.653L911.5 588.091C909.461 588.198 907.316 588.198 904.955 588.198Z" fill="#FFFFFF"/><path d="M915.792 587.876 915.47 581.439C917.723 581.331 919.869 581.224 921.693 581.009L922.336 587.447C920.405 587.661 918.152 587.769 915.792 587.876L915.792 587.876Z" fill="#FFFFFF"/><path d="M926.843 586.91 925.877 580.58C927.916 580.258 929.847 579.936 931.778 579.4L933.495 585.623C931.242 586.159 929.096 586.589 926.843 586.91Z" fill="#FFFFFF"/><path d="M938.001 584.014 935.426 578.112C936.821 577.683 938.001 576.718 938.859 575.537L944.546 578.649C942.936 581.117 940.683 582.941 938.001 584.014L938.001 584.014Z" fill="#FFFFFF"/><path d="M938.967 573.392C938.752 571.997 938.108 570.602 937.143 569.636L941.649 565.13C943.688 567.169 944.975 569.744 945.297 572.641L938.967 573.392Z" fill="#FFFFFF"/><path d="M934.46 567.705C932.744 566.847 930.92 566.096 929.096 565.559L930.92 559.444C933.173 560.088 935.426 560.946 937.465 562.019L934.46 567.705Z" fill="#FFFFFF"/><path d="M925.019 564.486 923.302 564.057C921.8 563.628 920.191 563.306 918.689 562.877L920.405 556.654C921.8 557.083 923.302 557.405 924.804 557.834L926.521 558.264 925.019 564.486Z" fill="#FFFFFF"/><path d="M914.29 561.375C911.715 560.409 909.354 558.8 907.638 556.654L912.895 553.006C913.86 554.186 915.255 555.045 916.65 555.474L914.29 561.375Z" fill="#FFFFFF"/><path d="M912.466 550.86 906.028 550.431C906.243 547.32 907.959 544.53 910.427 542.706L914.397 547.749C912.466 549.358 912.466 550.539 912.466 550.86L912.466 550.86Z" fill="#FFFFFF"/><path d="M917.401 546.14 914.826 540.239C916.972 539.273 919.225 538.522 921.478 537.985L922.98 544.208C921.049 544.745 919.225 545.389 917.401 546.14L917.401 546.14Z" fill="#FFFFFF"/><path d="M926.95 543.457 925.877 537.127C928.667 536.698 931.027 536.376 932.529 536.269L933.066 542.706C931.993 542.814 929.632 543.028 926.95 543.457L926.95 543.457Z" fill="#FFFFFF"/></g></svg>