<svg width="428" height="502" xmlns="http://www.w3.org/2000/svg" xmlns:xlink="http://www.w3.org/1999/xlink" xml:space="preserve" overflow="hidden"><g transform="translate(-3485 -1329)"><g><g><g><path d="M3713.31 1741.63 3692.69 1741.63 3692.69 1659.13 3713.31 1659.13Z" fill="#FFFFFF"/><path d="M3678.94 1782.88 3634.25 1782.88 3634.25 1755.38 3678.94 1755.38Z" fill="#FFFFFF"/><path d="M3606.75 1741.63 3678.94 1741.63 3678.94 1659.13C3678.94 1651.56 3672.75 1645.38 3665.19 1645.38L3661.75 1645.38 3661.75 1562.88C3661.75 1555.31 3655.56 1549.13 3648 1549.13L3599.87 1549.13C3592.31 1549.13 3586.12 1555.31 3586.12 1562.88L3586.12 1628.19 3606.75 1741.63Z" fill="#FFFFFF"/><path d="M3819.87 1628.19 3819.87 1562.88C3819.87 1555.31 3813.69 1549.13 3806.12 1549.13L3758 1549.13C3750.44 1549.13 3744.25 1555.31 3744.25 1562.88L3744.25 1645.38 3740.81 1645.38C3733.25 1645.38 3727.06 1651.56 3727.06 1659.13L3727.06 1741.63 3799.25 1741.63 3819.87 1628.19Z" fill="#FFFFFF"/><path d="M3771.75 1782.88 3727.06 1782.88 3727.06 1755.38 3771.75 1755.38Z" fill="#FFFFFF"/></g></g></g><path d="M3750.5 1332.5 3620.5 1641.5 3490.5 1332.5Z" stroke="#FFFFFF" stroke-width="6.875" stroke-miterlimit="8" stroke-dasharray="27.5 20.625" fill="none" fill-rule="evenodd"/><path d="M3907.5 1332.5 3777.5 1641.5 3647.5 1332.5Z" stroke="#FFFFFF" stroke-width="6.875" stroke-miterlimit="8" stroke-dasharray="27.5 20.625" fill="none" fill-rule="evenodd"/></g></svg>