<svg width="390" height="370" xmlns="http://www.w3.org/2000/svg" xmlns:xlink="http://www.w3.org/1999/xlink" xml:space="preserve" overflow="hidden"><g transform="translate(-2436 -1196)"><path d="M2442.5 1533.5 2631 1203.5 2819.5 1533.5Z" stroke="#FFFFFF" stroke-width="6.875" stroke-miterlimit="8" fill="none" fill-rule="evenodd"/><g><g><g><path d="M2702.66 1352.53 2560.34 1352.53 2512.91 1413.15 2631.5 1531.74 2631.5 1531.74 2750.09 1413.15ZM2585.88 1418.42 2620.43 1498.32 2540.53 1418.42ZM2665.76 1418.42 2631.5 1497.48 2597.24 1418.42ZM2596.48 1407.88 2608.62 1368.34 2654.38 1368.34 2666.52 1407.88ZM2677.12 1418.42 2722.45 1418.42 2642.62 1498.24ZM2725.9 1407.88 2677.57 1407.88 2665.39 1368.34 2694.96 1368.34ZM2568.04 1368.34 2597.61 1368.34 2585.43 1407.88 2537.1 1407.88Z" fill="#FFFFFF"/></g></g></g></g></svg>