<svg width="96" height="96" xmlns="http://www.w3.org/2000/svg" xmlns:xlink="http://www.w3.org/1999/xlink" xml:space="preserve" overflow="hidden"><g transform="translate(-308 -531)"><path d="M370.93 581C367.55 578.12 363.16 576.77 359 575.47L359 551.29C363.039 551.674 366.814 553.469 369.66 556.36L374.46 551.76C370.352 547.581 364.848 545.064 359 544.69L359 536 353 536 353 545.07C350.945 545.47 348.963 546.178 347.12 547.17 339.54 551.3 335.67 561 338.78 569.17 341.19 575.47 347 578.28 353 580.39L353 606.57C348.35 606 344.49 603.33 341.29 600L336.49 604.59C338.776 607.183 341.501 609.353 344.54 611 347.197 612.264 350.066 613.02 353 613.23L353 622 359 622 359 613C365.88 611.85 372.2 607.62 374.92 601 377.64 594.38 376.65 585.89 370.93 581ZM348 570.73C342.5 566.09 343.84 557.11 349.67 553.39 350.703 552.727 351.824 552.212 353 551.86L353 573.55C351.19 572.891 349.5 571.939 348 570.73ZM366.09 602.55C364.138 604.458 361.676 605.76 359 606.3L359 582.41C363 583.78 367.59 585.52 369.22 589.78 370.85 594.04 369.21 599.37 366.09 602.55Z" fill="#FFFFFF"/></g></svg>