<svg width="294" height="263" xmlns="http://www.w3.org/2000/svg" xmlns:xlink="http://www.w3.org/1999/xlink" xml:space="preserve" overflow="hidden"><g transform="translate(-1848 -1934)"><path d="M1860 2190 1995 1949 2130 2190Z" stroke="#FFFFFF" stroke-width="13.75" stroke-miterlimit="8" fill="none" fill-rule="evenodd"/><g><g><g><path d="M159.375 31.875 44.625 31.875 6.375 80.7499 102 176.375 102 176.375 197.625 80.7499ZM65.2162 84.9999 93.0749 149.43 28.645 84.9999ZM129.625 84.9999 102 148.75 74.3749 84.9999ZM73.7587 76.4999 83.5549 44.625 120.445 44.625 130.241 76.4999ZM138.784 84.9999 175.334 84.9999 110.967 149.366ZM178.117 76.4999 139.145 76.4999 129.327 44.625 153.17 44.625ZM50.83 44.625 74.6724 44.625 64.8549 76.4999 25.8825 76.4999Z" fill="#FFFFFF" transform="matrix(-1.0049 1.23065e-16 -1.22465e-16 -1 2094 2196)"/></g></g></g></g></svg>