<svg width="96" height="96" xmlns="http://www.w3.org/2000/svg" xmlns:xlink="http://www.w3.org/1999/xlink" xml:space="preserve" overflow="hidden"><g transform="translate(-638 -552)"><path d="M692.764 607.3C693.89 608.394 693.916 610.194 692.822 611.32 692.803 611.34 692.784 611.359 692.764 611.378L687.882 612.986 687.021 612.125 688.629 607.243C689.795 606.138 691.629 606.163 692.764 607.3ZM714.824 577.831 686.624 606.094 683 617.007 693.97 613.388 722.176 585.188Z" fill="#FFFFFF"/><path d="M728.318 575.767 724.24 571.689C723.356 570.785 721.907 570.768 721.003 571.652 720.991 571.664 720.978 571.677 720.966 571.689L716.945 575.71 724.24 583 728.26 578.98C729.162 578.187 729.25 576.812 728.456 575.91 728.412 575.86 728.366 575.813 728.318 575.767Z" fill="#FFFFFF"/><path d="M664 617 679.842 617 681.168 613 664 613 664 617Z" fill="#FFFFFF"/><path d="M664 593 695.448 593 699.44 589 664 589 664 593Z" fill="#FFFFFF"/><path d="M708 603.6 708 634 658 634 658 572 669 572 669 578 697 578 697 572 708 572 708 580.422 712.7 575.71 712.7 575.71 712.871 575.539 714 574.41 714 570C714 567.791 712.209 566 710 566L693 566 693 564C693 561.791 691.209 560 689 560L677 560C674.791 560 673 561.791 673 564L673 566 656 566C653.791 566 652 567.791 652 570L652 636C652 638.209 653.791 640 656 640L710 640C712.209 640 714 638.209 714 636L714 597.6ZM680.864 564.864C681.429 564.298 682.2 563.986 683 564 684.657 564 686 565.343 686 567 686 568.657 684.657 570 683 570 681.343 570 680 568.657 680 567 679.986 566.2 680.298 565.429 680.864 564.864Z" fill="#FFFFFF"/><path d="M664 605 683.448 605 687.44 601 664 601 664 605Z" fill="#FFFFFF"/></g></svg>